<svg width="316" height="116" viewBox="0 0 316 116" fill="none" xmlns="http://www.w3.org/2000/svg">
    <g filter="url(#filter0_d_1_417)">
        <rect x="8" y="20" width="300" height="84" rx="8" fill="#297C6B" />
        <path d="M158 11L169 20H147L158 11Z" fill="#297C6B" />
    </g>
    <path
        d="M27.549 45L24.481 35.9H25.469L28.342 44.467H27.848L30.812 35.9H31.696L34.621 44.467H34.153L37.052 35.9H37.975L34.907 45H33.893L31.098 36.875H31.358L28.55 45H27.549ZM41.9223 45.065C41.2117 45.065 40.5877 44.9177 40.0503 44.623C39.513 44.3197 39.0927 43.908 38.7893 43.388C38.486 42.8593 38.3343 42.257 38.3343 41.581C38.3343 40.905 38.4773 40.307 38.7633 39.787C39.058 39.267 39.4567 38.8597 39.9593 38.565C40.4707 38.2617 41.0427 38.11 41.6753 38.11C42.3167 38.11 42.8843 38.2573 43.3783 38.552C43.881 38.838 44.2753 39.2453 44.5613 39.774C44.8473 40.294 44.9903 40.8963 44.9903 41.581C44.9903 41.6243 44.986 41.672 44.9773 41.724C44.9773 41.7673 44.9773 41.815 44.9773 41.867H39.0363V41.178H44.4833L44.1193 41.451C44.1193 40.957 44.011 40.5193 43.7943 40.138C43.5863 39.748 43.3003 39.4447 42.9363 39.228C42.5723 39.0113 42.152 38.903 41.6753 38.903C41.2073 38.903 40.787 39.0113 40.4143 39.228C40.0417 39.4447 39.7513 39.748 39.5433 40.138C39.3353 40.528 39.2313 40.9743 39.2313 41.477V41.62C39.2313 42.14 39.344 42.5993 39.5693 42.998C39.8033 43.388 40.124 43.6957 40.5313 43.921C40.9473 44.1377 41.4197 44.246 41.9483 44.246C42.3643 44.246 42.75 44.1723 43.1053 44.025C43.4693 43.8777 43.7813 43.6523 44.0413 43.349L44.5613 43.947C44.258 44.311 43.8767 44.5883 43.4173 44.779C42.9667 44.9697 42.4683 45.065 41.9223 45.065ZM46.2846 38.526L46.8566 36.134L46.9606 36.68C46.7613 36.68 46.5923 36.6193 46.4536 36.498C46.3236 36.368 46.2586 36.199 46.2586 35.991C46.2586 35.783 46.3236 35.614 46.4536 35.484C46.5923 35.354 46.757 35.289 46.9476 35.289C47.147 35.289 47.3073 35.3583 47.4286 35.497C47.5586 35.627 47.6236 35.7917 47.6236 35.991C47.6236 36.0603 47.6193 36.1297 47.6106 36.199C47.602 36.2683 47.5846 36.3463 47.5586 36.433C47.5413 36.511 47.511 36.6107 47.4676 36.732L46.9086 38.526H46.2846ZM49.5985 45V38.175H50.4825V40.034L50.3915 39.709C50.5822 39.189 50.9029 38.7947 51.3535 38.526C51.8042 38.2487 52.3632 38.11 53.0305 38.11V39.007C52.9959 39.007 52.9612 39.007 52.9265 39.007C52.8919 38.9983 52.8572 38.994 52.8225 38.994C52.1032 38.994 51.5399 39.215 51.1325 39.657C50.7252 40.0903 50.5215 40.71 50.5215 41.516V45H49.5985ZM57.5503 45.065C56.8396 45.065 56.2156 44.9177 55.6783 44.623C55.1409 44.3197 54.7206 43.908 54.4173 43.388C54.1139 42.8593 53.9623 42.257 53.9623 41.581C53.9623 40.905 54.1053 40.307 54.3913 39.787C54.6859 39.267 55.0846 38.8597 55.5873 38.565C56.0986 38.2617 56.6706 38.11 57.3033 38.11C57.9446 38.11 58.5123 38.2573 59.0063 38.552C59.5089 38.838 59.9033 39.2453 60.1893 39.774C60.4753 40.294 60.6183 40.8963 60.6183 41.581C60.6183 41.6243 60.6139 41.672 60.6053 41.724C60.6053 41.7673 60.6053 41.815 60.6053 41.867H54.6643V41.178H60.1113L59.7473 41.451C59.7473 40.957 59.6389 40.5193 59.4223 40.138C59.2143 39.748 58.9283 39.4447 58.5643 39.228C58.2003 39.0113 57.7799 38.903 57.3033 38.903C56.8353 38.903 56.4149 39.0113 56.0423 39.228C55.6696 39.4447 55.3793 39.748 55.1713 40.138C54.9633 40.528 54.8593 40.9743 54.8593 41.477V41.62C54.8593 42.14 54.9719 42.5993 55.1973 42.998C55.4313 43.388 55.7519 43.6957 56.1593 43.921C56.5753 44.1377 57.0476 44.246 57.5763 44.246C57.9923 44.246 58.3779 44.1723 58.7333 44.025C59.0973 43.8777 59.4093 43.6523 59.6693 43.349L60.1893 43.947C59.8859 44.311 59.5046 44.5883 59.0453 44.779C58.5946 44.9697 58.0963 45.065 57.5503 45.065ZM68.7983 45.065C68.0876 45.065 67.4636 44.9177 66.9263 44.623C66.389 44.3197 65.9686 43.908 65.6653 43.388C65.362 42.8593 65.2103 42.257 65.2103 41.581C65.2103 40.905 65.3533 40.307 65.6393 39.787C65.934 39.267 66.3326 38.8597 66.8353 38.565C67.3466 38.2617 67.9186 38.11 68.5513 38.11C69.1926 38.11 69.7603 38.2573 70.2543 38.552C70.757 38.838 71.1513 39.2453 71.4373 39.774C71.7233 40.294 71.8663 40.8963 71.8663 41.581C71.8663 41.6243 71.862 41.672 71.8533 41.724C71.8533 41.7673 71.8533 41.815 71.8533 41.867H65.9123V41.178H71.3593L70.9953 41.451C70.9953 40.957 70.887 40.5193 70.6703 40.138C70.4623 39.748 70.1763 39.4447 69.8123 39.228C69.4483 39.0113 69.028 38.903 68.5513 38.903C68.0833 38.903 67.663 39.0113 67.2903 39.228C66.9176 39.4447 66.6273 39.748 66.4193 40.138C66.2113 40.528 66.1073 40.9743 66.1073 41.477V41.62C66.1073 42.14 66.22 42.5993 66.4453 42.998C66.6793 43.388 67 43.6957 67.4073 43.921C67.8233 44.1377 68.2956 44.246 68.8243 44.246C69.2403 44.246 69.626 44.1723 69.9813 44.025C70.3453 43.8777 70.6573 43.6523 70.9173 43.349L71.4373 43.947C71.134 44.311 70.7526 44.5883 70.2933 44.779C69.8426 44.9697 69.3443 45.065 68.7983 45.065ZM72.5146 45L75.4006 41.256L75.3876 41.711L72.6446 38.175H73.6846L75.9336 41.1L75.5436 41.087L77.7926 38.175H78.8066L76.0376 41.75L76.0506 41.256L78.9626 45H77.9096L75.5306 41.88L75.8946 41.932L73.5546 45H72.5146ZM84.0219 45.065C83.4326 45.065 82.8996 44.9307 82.4229 44.662C81.9462 44.3847 81.5649 43.9903 81.2789 43.479C81.0016 42.959 80.8629 42.3263 80.8629 41.581C80.8629 40.8357 81.0016 40.2073 81.2789 39.696C81.5562 39.176 81.9332 38.7817 82.4099 38.513C82.8866 38.2443 83.4239 38.11 84.0219 38.11C84.6719 38.11 85.2526 38.2573 85.7639 38.552C86.2839 38.838 86.6912 39.2453 86.9859 39.774C87.2806 40.294 87.4279 40.8963 87.4279 41.581C87.4279 42.2743 87.2806 42.881 86.9859 43.401C86.6912 43.921 86.2839 44.3283 85.7639 44.623C85.2526 44.9177 84.6719 45.065 84.0219 45.065ZM80.4989 47.522V38.175H81.3829V40.229L81.2919 41.594L81.4219 42.972V47.522H80.4989ZM83.9569 44.246C84.4422 44.246 84.8756 44.1377 85.2569 43.921C85.6382 43.6957 85.9416 43.3837 86.1669 42.985C86.3922 42.5777 86.5049 42.1097 86.5049 41.581C86.5049 41.0523 86.3922 40.5887 86.1669 40.19C85.9416 39.7913 85.6382 39.4793 85.2569 39.254C84.8756 39.0287 84.4422 38.916 83.9569 38.916C83.4716 38.916 83.0339 39.0287 82.6439 39.254C82.2626 39.4793 81.9592 39.7913 81.7339 40.19C81.5172 40.5887 81.4089 41.0523 81.4089 41.581C81.4089 42.1097 81.5172 42.5777 81.7339 42.985C81.9592 43.3837 82.2626 43.6957 82.6439 43.921C83.0339 44.1377 83.4716 44.246 83.9569 44.246ZM92.2085 45.065C91.4978 45.065 90.8738 44.9177 90.3365 44.623C89.7991 44.3197 89.3788 43.908 89.0755 43.388C88.7721 42.8593 88.6205 42.257 88.6205 41.581C88.6205 40.905 88.7635 40.307 89.0495 39.787C89.3441 39.267 89.7428 38.8597 90.2455 38.565C90.7568 38.2617 91.3288 38.11 91.9615 38.11C92.6028 38.11 93.1705 38.2573 93.6645 38.552C94.1671 38.838 94.5615 39.2453 94.8475 39.774C95.1335 40.294 95.2765 40.8963 95.2765 41.581C95.2765 41.6243 95.2721 41.672 95.2635 41.724C95.2635 41.7673 95.2635 41.815 95.2635 41.867H89.3225V41.178H94.7695L94.4055 41.451C94.4055 40.957 94.2971 40.5193 94.0805 40.138C93.8725 39.748 93.5865 39.4447 93.2225 39.228C92.8585 39.0113 92.4381 38.903 91.9615 38.903C91.4935 38.903 91.0731 39.0113 90.7005 39.228C90.3278 39.4447 90.0375 39.748 89.8295 40.138C89.6215 40.528 89.5175 40.9743 89.5175 41.477V41.62C89.5175 42.14 89.6301 42.5993 89.8555 42.998C90.0895 43.388 90.4101 43.6957 90.8175 43.921C91.2335 44.1377 91.7058 44.246 92.2345 44.246C92.6505 44.246 93.0361 44.1723 93.3915 44.025C93.7555 43.8777 94.0675 43.6523 94.3275 43.349L94.8475 43.947C94.5441 44.311 94.1628 44.5883 93.7035 44.779C93.2528 44.9697 92.7545 45.065 92.2085 45.065ZM97.1552 45V38.175H98.0392V40.034L97.9482 39.709C98.1388 39.189 98.4595 38.7947 98.9102 38.526C99.3608 38.2487 99.9198 38.11 100.587 38.11V39.007C100.552 39.007 100.518 39.007 100.483 39.007C100.448 38.9983 100.414 38.994 100.379 38.994C99.6598 38.994 99.0965 39.215 98.6892 39.657C98.2818 40.0903 98.0782 40.71 98.0782 41.516V45H97.1552ZM102.271 45V38.175H103.194V45H102.271ZM102.739 36.667C102.549 36.667 102.388 36.602 102.258 36.472C102.128 36.342 102.063 36.186 102.063 36.004C102.063 35.822 102.128 35.6703 102.258 35.549C102.388 35.419 102.549 35.354 102.739 35.354C102.93 35.354 103.09 35.4147 103.22 35.536C103.35 35.6573 103.415 35.809 103.415 35.991C103.415 36.1817 103.35 36.342 103.22 36.472C103.099 36.602 102.939 36.667 102.739 36.667ZM108.662 45.065C107.951 45.065 107.327 44.9177 106.79 44.623C106.252 44.3197 105.832 43.908 105.529 43.388C105.225 42.8593 105.074 42.257 105.074 41.581C105.074 40.905 105.217 40.307 105.503 39.787C105.797 39.267 106.196 38.8597 106.699 38.565C107.21 38.2617 107.782 38.11 108.415 38.11C109.056 38.11 109.624 38.2573 110.118 38.552C110.62 38.838 111.015 39.2453 111.301 39.774C111.587 40.294 111.73 40.8963 111.73 41.581C111.73 41.6243 111.725 41.672 111.717 41.724C111.717 41.7673 111.717 41.815 111.717 41.867H105.776V41.178H111.223L110.859 41.451C110.859 40.957 110.75 40.5193 110.534 40.138C110.326 39.748 110.04 39.4447 109.676 39.228C109.312 39.0113 108.891 38.903 108.415 38.903C107.947 38.903 107.526 39.0113 107.154 39.228C106.781 39.4447 106.491 39.748 106.283 40.138C106.075 40.528 105.971 40.9743 105.971 41.477V41.62C105.971 42.14 106.083 42.5993 106.309 42.998C106.543 43.388 106.863 43.6957 107.271 43.921C107.687 44.1377 108.159 44.246 108.688 44.246C109.104 44.246 109.489 44.1723 109.845 44.025C110.209 43.8777 110.521 43.6523 110.781 43.349L111.301 43.947C110.997 44.311 110.616 44.5883 110.157 44.779C109.706 44.9697 109.208 45.065 108.662 45.065ZM117.092 38.11C117.647 38.11 118.132 38.2183 118.548 38.435C118.973 38.643 119.302 38.9637 119.536 39.397C119.779 39.8303 119.9 40.3763 119.9 41.035V45H118.977V41.126C118.977 40.4067 118.795 39.865 118.431 39.501C118.076 39.1283 117.573 38.942 116.923 38.942C116.438 38.942 116.013 39.0417 115.649 39.241C115.294 39.4317 115.017 39.7133 114.817 40.086C114.627 40.45 114.531 40.892 114.531 41.412V45H113.608V38.175H114.492V40.047L114.349 39.696C114.566 39.202 114.913 38.8163 115.389 38.539C115.866 38.253 116.434 38.11 117.092 38.11ZM125.227 45.065C124.551 45.065 123.945 44.9177 123.407 44.623C122.879 44.3197 122.463 43.908 122.159 43.388C121.856 42.8593 121.704 42.257 121.704 41.581C121.704 40.8963 121.856 40.294 122.159 39.774C122.463 39.254 122.879 38.8467 123.407 38.552C123.945 38.2573 124.551 38.11 125.227 38.11C125.808 38.11 126.332 38.2227 126.8 38.448C127.268 38.6733 127.637 39.0113 127.905 39.462L127.216 39.93C126.982 39.5833 126.692 39.3277 126.345 39.163C125.999 38.9983 125.622 38.916 125.214 38.916C124.729 38.916 124.291 39.0287 123.901 39.254C123.511 39.4707 123.204 39.7783 122.978 40.177C122.753 40.5757 122.64 41.0437 122.64 41.581C122.64 42.1183 122.753 42.5863 122.978 42.985C123.204 43.3837 123.511 43.6957 123.901 43.921C124.291 44.1377 124.729 44.246 125.214 44.246C125.622 44.246 125.999 44.1637 126.345 43.999C126.692 43.8343 126.982 43.583 127.216 43.245L127.905 43.713C127.637 44.155 127.268 44.493 126.8 44.727C126.332 44.9523 125.808 45.065 125.227 45.065ZM132.503 45.065C131.793 45.065 131.169 44.9177 130.631 44.623C130.094 44.3197 129.674 43.908 129.37 43.388C129.067 42.8593 128.915 42.257 128.915 41.581C128.915 40.905 129.058 40.307 129.344 39.787C129.639 39.267 130.038 38.8597 130.54 38.565C131.052 38.2617 131.624 38.11 132.256 38.11C132.898 38.11 133.465 38.2573 133.959 38.552C134.462 38.838 134.856 39.2453 135.142 39.774C135.428 40.294 135.571 40.8963 135.571 41.581C135.571 41.6243 135.567 41.672 135.558 41.724C135.558 41.7673 135.558 41.815 135.558 41.867H129.617V41.178H135.064L134.7 41.451C134.7 40.957 134.592 40.5193 134.375 40.138C134.167 39.748 133.881 39.4447 133.517 39.228C133.153 39.0113 132.733 38.903 132.256 38.903C131.788 38.903 131.368 39.0113 130.995 39.228C130.623 39.4447 130.332 39.748 130.124 40.138C129.916 40.528 129.812 40.9743 129.812 41.477V41.62C129.812 42.14 129.925 42.5993 130.15 42.998C130.384 43.388 130.705 43.6957 131.112 43.921C131.528 44.1377 132.001 44.246 132.529 44.246C132.945 44.246 133.331 44.1723 133.686 44.025C134.05 43.8777 134.362 43.6523 134.622 43.349L135.142 43.947C134.839 44.311 134.458 44.5883 133.998 44.779C133.548 44.9697 133.049 45.065 132.503 45.065ZM140.167 45.065C139.517 45.065 138.932 44.9177 138.412 44.623C137.901 44.3283 137.498 43.921 137.203 43.401C136.908 42.8723 136.761 42.2657 136.761 41.581C136.761 40.8877 136.908 40.281 137.203 39.761C137.498 39.241 137.901 38.838 138.412 38.552C138.932 38.2573 139.517 38.11 140.167 38.11C140.765 38.11 141.298 38.2443 141.766 38.513C142.243 38.7817 142.62 39.176 142.897 39.696C143.183 40.2073 143.326 40.8357 143.326 41.581C143.326 42.3177 143.187 42.946 142.91 43.466C142.633 43.986 142.256 44.3847 141.779 44.662C141.311 44.9307 140.774 45.065 140.167 45.065ZM140.232 44.246C140.717 44.246 141.151 44.1377 141.532 43.921C141.922 43.6957 142.225 43.3837 142.442 42.985C142.667 42.5777 142.78 42.1097 142.78 41.581C142.78 41.0437 142.667 40.5757 142.442 40.177C142.225 39.7783 141.922 39.4707 141.532 39.254C141.151 39.0287 140.717 38.916 140.232 38.916C139.755 38.916 139.326 39.0287 138.945 39.254C138.564 39.4707 138.26 39.7783 138.035 40.177C137.81 40.5757 137.697 41.0437 137.697 41.581C137.697 42.1097 137.81 42.5777 138.035 42.985C138.26 43.3837 138.564 43.6957 138.945 43.921C139.326 44.1377 139.755 44.246 140.232 44.246ZM142.806 45V42.946L142.897 41.568L142.767 40.19V35.354H143.69V45H142.806ZM149.663 45V38.175H150.586V45H149.663ZM150.131 36.667C149.94 36.667 149.78 36.602 149.65 36.472C149.52 36.342 149.455 36.186 149.455 36.004C149.455 35.822 149.52 35.6703 149.65 35.549C149.78 35.419 149.94 35.354 150.131 35.354C150.322 35.354 150.482 35.4147 150.612 35.536C150.742 35.6573 150.807 35.809 150.807 35.991C150.807 36.1817 150.742 36.342 150.612 36.472C150.491 36.602 150.33 36.667 150.131 36.667ZM156.638 38.11C157.193 38.11 157.678 38.2183 158.094 38.435C158.519 38.643 158.848 38.9637 159.082 39.397C159.325 39.8303 159.446 40.3763 159.446 41.035V45H158.523V41.126C158.523 40.4067 158.341 39.865 157.977 39.501C157.622 39.1283 157.119 38.942 156.469 38.942C155.984 38.942 155.559 39.0417 155.195 39.241C154.84 39.4317 154.563 39.7133 154.363 40.086C154.173 40.45 154.077 40.892 154.077 41.412V45H153.154V38.175H154.038V40.047L153.895 39.696C154.112 39.202 154.459 38.8163 154.935 38.539C155.412 38.253 155.98 38.11 156.638 38.11ZM168.124 45.065C167.465 45.065 166.871 44.9177 166.343 44.623C165.823 44.3197 165.411 43.908 165.108 43.388C164.804 42.8593 164.653 42.257 164.653 41.581C164.653 40.8963 164.804 40.294 165.108 39.774C165.411 39.254 165.823 38.8467 166.343 38.552C166.863 38.2573 167.456 38.11 168.124 38.11C168.8 38.11 169.398 38.2573 169.918 38.552C170.446 38.8467 170.858 39.254 171.153 39.774C171.456 40.294 171.608 40.8963 171.608 41.581C171.608 42.257 171.456 42.8593 171.153 43.388C170.858 43.908 170.446 44.3197 169.918 44.623C169.389 44.9177 168.791 45.065 168.124 45.065ZM168.124 44.246C168.618 44.246 169.055 44.1377 169.437 43.921C169.818 43.6957 170.117 43.3837 170.334 42.985C170.559 42.5777 170.672 42.1097 170.672 41.581C170.672 41.0437 170.559 40.5757 170.334 40.177C170.117 39.7783 169.818 39.4707 169.437 39.254C169.055 39.0287 168.622 38.916 168.137 38.916C167.651 38.916 167.218 39.0287 166.837 39.254C166.455 39.4707 166.152 39.7783 165.927 40.177C165.701 40.5757 165.589 41.0437 165.589 41.581C165.589 42.1097 165.701 42.5777 165.927 42.985C166.152 43.3837 166.455 43.6957 166.837 43.921C167.218 44.1377 167.647 44.246 168.124 44.246ZM176.313 45.065C175.732 45.065 175.225 44.9567 174.792 44.74C174.359 44.5233 174.021 44.1983 173.778 43.765C173.544 43.3317 173.427 42.79 173.427 42.14V38.175H174.35V42.036C174.35 42.764 174.528 43.3143 174.883 43.687C175.247 44.051 175.754 44.233 176.404 44.233C176.881 44.233 177.292 44.1377 177.639 43.947C177.994 43.7477 178.263 43.4617 178.445 43.089C178.636 42.7163 178.731 42.27 178.731 41.75V38.175H179.654V45H178.77V43.128L178.913 43.466C178.696 43.9687 178.358 44.363 177.899 44.649C177.448 44.9263 176.92 45.065 176.313 45.065ZM182.226 45V38.175H183.11V40.034L183.019 39.709C183.21 39.189 183.531 38.7947 183.981 38.526C184.432 38.2487 184.991 38.11 185.658 38.11V39.007C185.624 39.007 185.589 39.007 185.554 39.007C185.52 38.9983 185.485 38.994 185.45 38.994C184.731 38.994 184.168 39.215 183.76 39.657C183.353 40.0903 183.149 40.71 183.149 41.516V45H182.226ZM190.847 45V38.175H191.77V45H190.847ZM191.315 36.667C191.124 36.667 190.964 36.602 190.834 36.472C190.704 36.342 190.639 36.186 190.639 36.004C190.639 35.822 190.704 35.6703 190.834 35.549C190.964 35.419 191.124 35.354 191.315 35.354C191.505 35.354 191.666 35.4147 191.796 35.536C191.926 35.6573 191.991 35.809 191.991 35.991C191.991 36.1817 191.926 36.342 191.796 36.472C191.674 36.602 191.514 36.667 191.315 36.667ZM197.822 38.11C198.376 38.11 198.862 38.2183 199.278 38.435C199.702 38.643 200.032 38.9637 200.266 39.397C200.508 39.8303 200.63 40.3763 200.63 41.035V45H199.707V41.126C199.707 40.4067 199.525 39.865 199.161 39.501C198.805 39.1283 198.303 38.942 197.653 38.942C197.167 38.942 196.743 39.0417 196.379 39.241C196.023 39.4317 195.746 39.7133 195.547 40.086C195.356 40.45 195.261 40.892 195.261 41.412V45H194.338V38.175H195.222V40.047L195.079 39.696C195.295 39.202 195.642 38.8163 196.119 38.539C196.595 38.253 197.163 38.11 197.822 38.11ZM205.84 45.065C205.19 45.065 204.605 44.9177 204.085 44.623C203.574 44.3283 203.171 43.921 202.876 43.401C202.581 42.8723 202.434 42.2657 202.434 41.581C202.434 40.8877 202.581 40.281 202.876 39.761C203.171 39.241 203.574 38.838 204.085 38.552C204.605 38.2573 205.19 38.11 205.84 38.11C206.438 38.11 206.971 38.2443 207.439 38.513C207.916 38.7817 208.293 39.176 208.57 39.696C208.856 40.2073 208.999 40.8357 208.999 41.581C208.999 42.3177 208.86 42.946 208.583 43.466C208.306 43.986 207.929 44.3847 207.452 44.662C206.984 44.9307 206.447 45.065 205.84 45.065ZM205.905 44.246C206.39 44.246 206.824 44.1377 207.205 43.921C207.595 43.6957 207.898 43.3837 208.115 42.985C208.34 42.5777 208.453 42.1097 208.453 41.581C208.453 41.0437 208.34 40.5757 208.115 40.177C207.898 39.7783 207.595 39.4707 207.205 39.254C206.824 39.0287 206.39 38.916 205.905 38.916C205.428 38.916 204.999 39.0287 204.618 39.254C204.237 39.4707 203.933 39.7783 203.708 40.177C203.483 40.5757 203.37 41.0437 203.37 41.581C203.37 42.1097 203.483 42.5777 203.708 42.985C203.933 43.3837 204.237 43.6957 204.618 43.921C204.999 44.1377 205.428 44.246 205.905 44.246ZM208.479 45V42.946L208.57 41.568L208.44 40.19V35.354H209.363V45H208.479ZM211.933 45V38.175H212.856V45H211.933ZM212.401 36.667C212.211 36.667 212.05 36.602 211.92 36.472C211.79 36.342 211.725 36.186 211.725 36.004C211.725 35.822 211.79 35.6703 211.92 35.549C212.05 35.419 212.211 35.354 212.401 35.354C212.592 35.354 212.752 35.4147 212.882 35.536C213.012 35.6573 213.077 35.809 213.077 35.991C213.077 36.1817 213.012 36.342 212.882 36.472C212.761 36.602 212.601 36.667 212.401 36.667ZM217.18 45L214.151 38.175H215.113L217.895 44.506H217.44L220.261 38.175H221.171L218.129 45H217.18ZM222.471 45V38.175H223.394V45H222.471ZM222.939 36.667C222.748 36.667 222.588 36.602 222.458 36.472C222.328 36.342 222.263 36.186 222.263 36.004C222.263 35.822 222.328 35.6703 222.458 35.549C222.588 35.419 222.748 35.354 222.939 35.354C223.129 35.354 223.29 35.4147 223.42 35.536C223.55 35.6573 223.615 35.809 223.615 35.991C223.615 36.1817 223.55 36.342 223.42 36.472C223.298 36.602 223.138 36.667 222.939 36.667ZM228.679 45.065C228.029 45.065 227.444 44.9177 226.924 44.623C226.412 44.3283 226.009 43.921 225.715 43.401C225.42 42.8723 225.273 42.2657 225.273 41.581C225.273 40.8877 225.42 40.281 225.715 39.761C226.009 39.241 226.412 38.838 226.924 38.552C227.444 38.2573 228.029 38.11 228.679 38.11C229.277 38.11 229.81 38.2443 230.278 38.513C230.754 38.7817 231.131 39.176 231.409 39.696C231.695 40.2073 231.838 40.8357 231.838 41.581C231.838 42.3177 231.699 42.946 231.422 43.466C231.144 43.986 230.767 44.3847 230.291 44.662C229.823 44.9307 229.285 45.065 228.679 45.065ZM228.744 44.246C229.229 44.246 229.662 44.1377 230.044 43.921C230.434 43.6957 230.737 43.3837 230.954 42.985C231.179 42.5777 231.292 42.1097 231.292 41.581C231.292 41.0437 231.179 40.5757 230.954 40.177C230.737 39.7783 230.434 39.4707 230.044 39.254C229.662 39.0287 229.229 38.916 228.744 38.916C228.267 38.916 227.838 39.0287 227.457 39.254C227.075 39.4707 226.772 39.7783 226.547 40.177C226.321 40.5757 226.209 41.0437 226.209 41.581C226.209 42.1097 226.321 42.5777 226.547 42.985C226.772 43.3837 227.075 43.6957 227.457 43.921C227.838 44.1377 228.267 44.246 228.744 44.246ZM231.318 45V42.946L231.409 41.568L231.279 40.19V35.354H232.202V45H231.318ZM237.593 45.065C237.013 45.065 236.506 44.9567 236.072 44.74C235.639 44.5233 235.301 44.1983 235.058 43.765C234.824 43.3317 234.707 42.79 234.707 42.14V38.175H235.63V42.036C235.63 42.764 235.808 43.3143 236.163 43.687C236.527 44.051 237.034 44.233 237.684 44.233C238.161 44.233 238.573 44.1377 238.919 43.947C239.275 43.7477 239.543 43.4617 239.725 43.089C239.916 42.7163 240.011 42.27 240.011 41.75V38.175H240.934V45H240.05V43.128L240.193 43.466C239.977 43.9687 239.639 44.363 239.179 44.649C238.729 44.9263 238.2 45.065 237.593 45.065ZM247.784 45V43.492L247.745 43.245V40.723C247.745 40.1423 247.58 39.696 247.251 39.384C246.93 39.072 246.449 38.916 245.808 38.916C245.366 38.916 244.945 38.9897 244.547 39.137C244.148 39.2843 243.81 39.4793 243.533 39.722L243.117 39.033C243.463 38.7383 243.879 38.513 244.365 38.357C244.85 38.1923 245.361 38.11 245.899 38.11C246.783 38.11 247.463 38.331 247.94 38.773C248.425 39.2063 248.668 39.8693 248.668 40.762V45H247.784ZM245.431 45.065C244.919 45.065 244.473 44.9827 244.092 44.818C243.719 44.6447 243.433 44.4107 243.234 44.116C243.034 43.8127 242.935 43.466 242.935 43.076C242.935 42.7207 243.017 42.4 243.182 42.114C243.355 41.8193 243.632 41.5853 244.014 41.412C244.404 41.23 244.924 41.139 245.574 41.139H247.927V41.828H245.6C244.941 41.828 244.482 41.945 244.222 42.179C243.97 42.413 243.845 42.7033 243.845 43.05C243.845 43.44 243.996 43.752 244.3 43.986C244.603 44.22 245.028 44.337 245.574 44.337C246.094 44.337 246.54 44.22 246.913 43.986C247.294 43.7433 247.571 43.3967 247.745 42.946L247.953 43.583C247.779 44.0337 247.476 44.3933 247.043 44.662C246.618 44.9307 246.081 45.065 245.431 45.065ZM251.175 45V35.354H252.098V45H251.175ZM28.121 65.065C27.445 65.065 26.8383 64.9177 26.301 64.623C25.7723 64.3197 25.3563 63.908 25.053 63.388C24.7497 62.8593 24.598 62.257 24.598 61.581C24.598 60.8963 24.7497 60.294 25.053 59.774C25.3563 59.254 25.7723 58.8467 26.301 58.552C26.8383 58.2573 27.445 58.11 28.121 58.11C28.7017 58.11 29.226 58.2227 29.694 58.448C30.162 58.6733 30.5303 59.0113 30.799 59.462L30.11 59.93C29.876 59.5833 29.5857 59.3277 29.239 59.163C28.8923 58.9983 28.5153 58.916 28.108 58.916C27.6227 58.916 27.185 59.0287 26.795 59.254C26.405 59.4707 26.0973 59.7783 25.872 60.177C25.6467 60.5757 25.534 61.0437 25.534 61.581C25.534 62.1183 25.6467 62.5863 25.872 62.985C26.0973 63.3837 26.405 63.6957 26.795 63.921C27.185 64.1377 27.6227 64.246 28.108 64.246C28.5153 64.246 28.8923 64.1637 29.239 63.999C29.5857 63.8343 29.876 63.583 30.11 63.245L30.799 63.713C30.5303 64.155 30.162 64.493 29.694 64.727C29.226 64.9523 28.7017 65.065 28.121 65.065ZM32.6122 65V58.175H33.4962V60.034L33.4052 59.709C33.5959 59.189 33.9165 58.7947 34.3672 58.526C34.8179 58.2487 35.3769 58.11 36.0442 58.11V59.007C36.0095 59.007 35.9749 59.007 35.9402 59.007C35.9055 58.9983 35.8709 58.994 35.8362 58.994C35.1169 58.994 34.5535 59.215 34.1462 59.657C33.7389 60.0903 33.5352 60.71 33.5352 61.516V65H32.6122ZM41.4976 65V63.492L41.4586 63.245V60.723C41.4586 60.1423 41.2939 59.696 40.9646 59.384C40.6439 59.072 40.1629 58.916 39.5216 58.916C39.0796 58.916 38.6593 58.9897 38.2606 59.137C37.8619 59.2843 37.5239 59.4793 37.2466 59.722L36.8306 59.033C37.1773 58.7383 37.5933 58.513 38.0786 58.357C38.5639 58.1923 39.0753 58.11 39.6126 58.11C40.4966 58.11 41.1769 58.331 41.6536 58.773C42.1389 59.2063 42.3816 59.8693 42.3816 60.762V65H41.4976ZM39.1446 65.065C38.6333 65.065 38.1869 64.9827 37.8056 64.818C37.4329 64.6447 37.1469 64.4107 36.9476 64.116C36.7483 63.8127 36.6486 63.466 36.6486 63.076C36.6486 62.7207 36.7309 62.4 36.8956 62.114C37.0689 61.8193 37.3463 61.5853 37.7276 61.412C38.1176 61.23 38.6376 61.139 39.2876 61.139H41.6406V61.828H39.3136C38.6549 61.828 38.1956 61.945 37.9356 62.179C37.6843 62.413 37.5586 62.7033 37.5586 63.05C37.5586 63.44 37.7103 63.752 38.0136 63.986C38.3169 64.22 38.7416 64.337 39.2876 64.337C39.8076 64.337 40.2539 64.22 40.6266 63.986C41.0079 63.7433 41.2853 63.3967 41.4586 62.946L41.6666 63.583C41.4933 64.0337 41.1899 64.3933 40.7566 64.662C40.3319 64.9307 39.7946 65.065 39.1446 65.065ZM45.0446 65V57.317C45.0446 56.7103 45.2222 56.2207 45.5776 55.848C45.9329 55.4753 46.4442 55.289 47.1116 55.289C47.3716 55.289 47.6229 55.3237 47.8656 55.393C48.1082 55.4623 48.3119 55.5707 48.4766 55.718L48.1646 56.407C48.0346 56.2943 47.8829 56.212 47.7096 56.16C47.5362 56.0993 47.3499 56.069 47.1506 56.069C46.7606 56.069 46.4616 56.1773 46.2536 56.394C46.0456 56.6107 45.9416 56.9313 45.9416 57.356V58.396L45.9676 58.825V65H45.0446ZM43.8226 58.942V58.175H48.0476V58.942H43.8226ZM51.4518 65.065C50.8105 65.065 50.3165 64.8917 49.9698 64.545C49.6232 64.1983 49.4498 63.7087 49.4498 63.076V56.667H50.3728V63.024C50.3728 63.4227 50.4725 63.7303 50.6718 63.947C50.8798 64.1637 51.1745 64.272 51.5558 64.272C51.9632 64.272 52.3012 64.155 52.5698 63.921L52.8948 64.584C52.7128 64.7487 52.4918 64.87 52.2318 64.948C51.9805 65.026 51.7205 65.065 51.4518 65.065ZM48.2278 58.942V58.175H52.4528V58.942H48.2278ZM56.4081 65.065C55.8448 65.065 55.3118 64.987 54.8091 64.831C54.3064 64.6663 53.9121 64.4627 53.6261 64.22L54.0421 63.492C54.3194 63.7 54.6748 63.882 55.1081 64.038C55.5414 64.1853 55.9964 64.259 56.4731 64.259C57.1231 64.259 57.5911 64.1593 57.8771 63.96C58.1631 63.752 58.3061 63.479 58.3061 63.141C58.3061 62.8897 58.2238 62.6947 58.0591 62.556C57.9031 62.4087 57.6951 62.3003 57.4351 62.231C57.1751 62.153 56.8848 62.088 56.5641 62.036C56.2434 61.984 55.9228 61.9233 55.6021 61.854C55.2901 61.7847 55.0041 61.685 54.7441 61.555C54.4841 61.4163 54.2718 61.23 54.1071 60.996C53.9511 60.762 53.8731 60.45 53.8731 60.06C53.8731 59.6873 53.9771 59.3537 54.1851 59.059C54.3931 58.7643 54.6964 58.5347 55.0951 58.37C55.5024 58.1967 55.9964 58.11 56.5771 58.11C57.0191 58.11 57.4611 58.1707 57.9031 58.292C58.3451 58.4047 58.7091 58.5563 58.9951 58.747L58.5921 59.488C58.2888 59.28 57.9638 59.1327 57.6171 59.046C57.2704 58.9507 56.9238 58.903 56.5771 58.903C55.9618 58.903 55.5068 59.0113 55.2121 59.228C54.9261 59.436 54.7831 59.7047 54.7831 60.034C54.7831 60.294 54.8611 60.4977 55.0171 60.645C55.1818 60.7923 55.3941 60.9093 55.6541 60.996C55.9228 61.074 56.2131 61.139 56.5251 61.191C56.8458 61.243 57.1621 61.308 57.4741 61.386C57.7948 61.4553 58.0851 61.555 58.3451 61.685C58.6138 61.8063 58.8261 61.984 58.9821 62.218C59.1468 62.4433 59.2291 62.7423 59.2291 63.115C59.2291 63.5137 59.1164 63.8603 58.8911 64.155C58.6744 64.441 58.3538 64.6663 57.9291 64.831C57.5131 64.987 57.0061 65.065 56.4081 65.065ZM68.6021 65V63.492L68.5631 63.245V60.723C68.5631 60.1423 68.3984 59.696 68.0691 59.384C67.7484 59.072 67.2674 58.916 66.6261 58.916C66.1841 58.916 65.7638 58.9897 65.3651 59.137C64.9664 59.2843 64.6284 59.4793 64.3511 59.722L63.9351 59.033C64.2818 58.7383 64.6978 58.513 65.1831 58.357C65.6684 58.1923 66.1798 58.11 66.7171 58.11C67.6011 58.11 68.2814 58.331 68.7581 58.773C69.2434 59.2063 69.4861 59.8693 69.4861 60.762V65H68.6021ZM66.2491 65.065C65.7378 65.065 65.2914 64.9827 64.9101 64.818C64.5374 64.6447 64.2514 64.4107 64.0521 64.116C63.8528 63.8127 63.7531 63.466 63.7531 63.076C63.7531 62.7207 63.8354 62.4 64.0001 62.114C64.1734 61.8193 64.4508 61.5853 64.8321 61.412C65.2221 61.23 65.7421 61.139 66.3921 61.139H68.7451V61.828H66.4181C65.7594 61.828 65.3001 61.945 65.0401 62.179C64.7888 62.413 64.6631 62.7033 64.6631 63.05C64.6631 63.44 64.8148 63.752 65.1181 63.986C65.4214 64.22 65.8461 64.337 66.3921 64.337C66.9121 64.337 67.3584 64.22 67.7311 63.986C68.1124 63.7433 68.3898 63.3967 68.5631 62.946L68.7711 63.583C68.5978 64.0337 68.2944 64.3933 67.8611 64.662C67.4364 64.9307 66.8991 65.065 66.2491 65.065ZM75.4771 58.11C76.0317 58.11 76.5171 58.2183 76.9331 58.435C77.3577 58.643 77.6871 58.9637 77.9211 59.397C78.1637 59.8303 78.2851 60.3763 78.2851 61.035V65H77.3621V61.126C77.3621 60.4067 77.1801 59.865 76.8161 59.501C76.4607 59.1283 75.9581 58.942 75.3081 58.942C74.8227 58.942 74.3981 59.0417 74.0341 59.241C73.6787 59.4317 73.4014 59.7133 73.2021 60.086C73.0114 60.45 72.9161 60.892 72.9161 61.412V65H71.9931V58.175H72.8771V60.047L72.7341 59.696C72.9507 59.202 73.2974 58.8163 73.7741 58.539C74.2507 58.253 74.8184 58.11 75.4771 58.11ZM83.4952 65.065C82.8452 65.065 82.2602 64.9177 81.7402 64.623C81.2289 64.3283 80.8259 63.921 80.5312 63.401C80.2365 62.8723 80.0892 62.2657 80.0892 61.581C80.0892 60.8877 80.2365 60.281 80.5312 59.761C80.8259 59.241 81.2289 58.838 81.7402 58.552C82.2602 58.2573 82.8452 58.11 83.4952 58.11C84.0932 58.11 84.6262 58.2443 85.0942 58.513C85.5709 58.7817 85.9479 59.176 86.2252 59.696C86.5112 60.2073 86.6542 60.8357 86.6542 61.581C86.6542 62.3177 86.5155 62.946 86.2382 63.466C85.9609 63.986 85.5839 64.3847 85.1072 64.662C84.6392 64.9307 84.1019 65.065 83.4952 65.065ZM83.5602 64.246C84.0455 64.246 84.4789 64.1377 84.8602 63.921C85.2502 63.6957 85.5535 63.3837 85.7702 62.985C85.9955 62.5777 86.1082 62.1097 86.1082 61.581C86.1082 61.0437 85.9955 60.5757 85.7702 60.177C85.5535 59.7783 85.2502 59.4707 84.8602 59.254C84.4789 59.0287 84.0455 58.916 83.5602 58.916C83.0835 58.916 82.6545 59.0287 82.2732 59.254C81.8919 59.4707 81.5885 59.7783 81.3632 60.177C81.1379 60.5757 81.0252 61.0437 81.0252 61.581C81.0252 62.1097 81.1379 62.5777 81.3632 62.985C81.5885 63.3837 81.8919 63.6957 82.2732 63.921C82.6545 64.1377 83.0835 64.246 83.5602 64.246ZM86.1342 65V62.946L86.2252 61.568L86.0952 60.19V55.354H87.0182V65H86.1342ZM95.8121 65.065C95.2314 65.065 94.7244 64.9567 94.2911 64.74C93.8578 64.5233 93.5198 64.1983 93.2771 63.765C93.0431 63.3317 92.9261 62.79 92.9261 62.14V58.175H93.8491V62.036C93.8491 62.764 94.0268 63.3143 94.3821 63.687C94.7461 64.051 95.2531 64.233 95.9031 64.233C96.3798 64.233 96.7914 64.1377 97.1381 63.947C97.4934 63.7477 97.7621 63.4617 97.9441 63.089C98.1348 62.7163 98.2301 62.27 98.2301 61.75V58.175H99.1531V65H98.2691V63.128L98.4121 63.466C98.1954 63.9687 97.8574 64.363 97.3981 64.649C96.9474 64.9263 96.4188 65.065 95.8121 65.065ZM105.209 58.11C105.764 58.11 106.249 58.2183 106.665 58.435C107.09 58.643 107.419 58.9637 107.653 59.397C107.896 59.8303 108.017 60.3763 108.017 61.035V65H107.094V61.126C107.094 60.4067 106.912 59.865 106.548 59.501C106.193 59.1283 105.69 58.942 105.04 58.942C104.555 58.942 104.13 59.0417 103.766 59.241C103.411 59.4317 103.134 59.7133 102.934 60.086C102.744 60.45 102.648 60.892 102.648 61.412V65H101.725V58.175H102.609V60.047L102.466 59.696C102.683 59.202 103.03 58.8163 103.506 58.539C103.983 58.253 104.551 58.11 105.209 58.11ZM113.228 65.065C112.578 65.065 111.993 64.9177 111.473 64.623C110.961 64.3283 110.558 63.921 110.264 63.401C109.969 62.8723 109.822 62.2657 109.822 61.581C109.822 60.8877 109.969 60.281 110.264 59.761C110.558 59.241 110.961 58.838 111.473 58.552C111.993 58.2573 112.578 58.11 113.228 58.11C113.826 58.11 114.359 58.2443 114.827 58.513C115.303 58.7817 115.68 59.176 115.958 59.696C116.244 60.2073 116.387 60.8357 116.387 61.581C116.387 62.3177 116.248 62.946 115.971 63.466C115.693 63.986 115.316 64.3847 114.84 64.662C114.372 64.9307 113.834 65.065 113.228 65.065ZM113.293 64.246C113.778 64.246 114.211 64.1377 114.593 63.921C114.983 63.6957 115.286 63.3837 115.503 62.985C115.728 62.5777 115.841 62.1097 115.841 61.581C115.841 61.0437 115.728 60.5757 115.503 60.177C115.286 59.7783 114.983 59.4707 114.593 59.254C114.211 59.0287 113.778 58.916 113.293 58.916C112.816 58.916 112.387 59.0287 112.006 59.254C111.624 59.4707 111.321 59.7783 111.096 60.177C110.87 60.5757 110.758 61.0437 110.758 61.581C110.758 62.1097 110.87 62.5777 111.096 62.985C111.321 63.3837 111.624 63.6957 112.006 63.921C112.387 64.1377 112.816 64.246 113.293 64.246ZM115.867 65V62.946L115.958 61.568L115.828 60.19V55.354H116.751V65H115.867ZM122.22 65.065C121.51 65.065 120.886 64.9177 120.348 64.623C119.811 64.3197 119.391 63.908 119.087 63.388C118.784 62.8593 118.632 62.257 118.632 61.581C118.632 60.905 118.775 60.307 119.061 59.787C119.356 59.267 119.755 58.8597 120.257 58.565C120.769 58.2617 121.341 58.11 121.973 58.11C122.615 58.11 123.182 58.2573 123.676 58.552C124.179 58.838 124.573 59.2453 124.859 59.774C125.145 60.294 125.288 60.8963 125.288 61.581C125.288 61.6243 125.284 61.672 125.275 61.724C125.275 61.7673 125.275 61.815 125.275 61.867H119.334V61.178H124.781L124.417 61.451C124.417 60.957 124.309 60.5193 124.092 60.138C123.884 59.748 123.598 59.4447 123.234 59.228C122.87 59.0113 122.45 58.903 121.973 58.903C121.505 58.903 121.085 59.0113 120.712 59.228C120.34 59.4447 120.049 59.748 119.841 60.138C119.633 60.528 119.529 60.9743 119.529 61.477V61.62C119.529 62.14 119.642 62.5993 119.867 62.998C120.101 63.388 120.422 63.6957 120.829 63.921C121.245 64.1377 121.718 64.246 122.246 64.246C122.662 64.246 123.048 64.1723 123.403 64.025C123.767 63.8777 124.079 63.6523 124.339 63.349L124.859 63.947C124.556 64.311 124.175 64.5883 123.715 64.779C123.265 64.9697 122.766 65.065 122.22 65.065ZM127.167 65V58.175H128.051V60.034L127.96 59.709C128.151 59.189 128.471 58.7947 128.922 58.526C129.373 58.2487 129.932 58.11 130.599 58.11V59.007C130.564 59.007 130.53 59.007 130.495 59.007C130.46 58.9983 130.426 58.994 130.391 58.994C129.672 58.994 129.108 59.215 128.701 59.657C128.294 60.0903 128.09 60.71 128.09 61.516V65H127.167ZM134.192 65.065C133.629 65.065 133.096 64.987 132.593 64.831C132.091 64.6663 131.696 64.4627 131.41 64.22L131.826 63.492C132.104 63.7 132.459 63.882 132.892 64.038C133.326 64.1853 133.781 64.259 134.257 64.259C134.907 64.259 135.375 64.1593 135.661 63.96C135.947 63.752 136.09 63.479 136.09 63.141C136.09 62.8897 136.008 62.6947 135.843 62.556C135.687 62.4087 135.479 62.3003 135.219 62.231C134.959 62.153 134.669 62.088 134.348 62.036C134.028 61.984 133.707 61.9233 133.386 61.854C133.074 61.7847 132.788 61.685 132.528 61.555C132.268 61.4163 132.056 61.23 131.891 60.996C131.735 60.762 131.657 60.45 131.657 60.06C131.657 59.6873 131.761 59.3537 131.969 59.059C132.177 58.7643 132.481 58.5347 132.879 58.37C133.287 58.1967 133.781 58.11 134.361 58.11C134.803 58.11 135.245 58.1707 135.687 58.292C136.129 58.4047 136.493 58.5563 136.779 58.747L136.376 59.488C136.073 59.28 135.748 59.1327 135.401 59.046C135.055 58.9507 134.708 58.903 134.361 58.903C133.746 58.903 133.291 59.0113 132.996 59.228C132.71 59.436 132.567 59.7047 132.567 60.034C132.567 60.294 132.645 60.4977 132.801 60.645C132.966 60.7923 133.178 60.9093 133.438 60.996C133.707 61.074 133.997 61.139 134.309 61.191C134.63 61.243 134.946 61.308 135.258 61.386C135.579 61.4553 135.869 61.555 136.129 61.685C136.398 61.8063 136.61 61.984 136.766 62.218C136.931 62.4433 137.013 62.7423 137.013 63.115C137.013 63.5137 136.901 63.8603 136.675 64.155C136.459 64.441 136.138 64.6663 135.713 64.831C135.297 64.987 134.79 65.065 134.192 65.065ZM140.865 65.065C140.224 65.065 139.73 64.8917 139.383 64.545C139.036 64.1983 138.863 63.7087 138.863 63.076V56.667H139.786V63.024C139.786 63.4227 139.886 63.7303 140.085 63.947C140.293 64.1637 140.588 64.272 140.969 64.272C141.376 64.272 141.714 64.155 141.983 63.921L142.308 64.584C142.126 64.7487 141.905 64.87 141.645 64.948C141.394 65.026 141.134 65.065 140.865 65.065ZM137.641 58.942V58.175H141.866V58.942H137.641ZM148.265 65V63.492L148.226 63.245V60.723C148.226 60.1423 148.062 59.696 147.732 59.384C147.412 59.072 146.931 58.916 146.289 58.916C145.847 58.916 145.427 58.9897 145.028 59.137C144.63 59.2843 144.292 59.4793 144.014 59.722L143.598 59.033C143.945 58.7383 144.361 58.513 144.846 58.357C145.332 58.1923 145.843 58.11 146.38 58.11C147.264 58.11 147.945 58.331 148.421 58.773C148.907 59.2063 149.149 59.8693 149.149 60.762V65H148.265ZM145.912 65.065C145.401 65.065 144.955 64.9827 144.573 64.818C144.201 64.6447 143.915 64.4107 143.715 64.116C143.516 63.8127 143.416 63.466 143.416 63.076C143.416 62.7207 143.499 62.4 143.663 62.114C143.837 61.8193 144.114 61.5853 144.495 61.412C144.885 61.23 145.405 61.139 146.055 61.139H148.408V61.828H146.081C145.423 61.828 144.963 61.945 144.703 62.179C144.452 62.413 144.326 62.7033 144.326 63.05C144.326 63.44 144.478 63.752 144.781 63.986C145.085 64.22 145.509 64.337 146.055 64.337C146.575 64.337 147.022 64.22 147.394 63.986C147.776 63.7433 148.053 63.3967 148.226 62.946L148.434 63.583C148.261 64.0337 147.958 64.3933 147.524 64.662C147.1 64.9307 146.562 65.065 145.912 65.065ZM155.14 58.11C155.695 58.11 156.18 58.2183 156.596 58.435C157.021 58.643 157.35 58.9637 157.584 59.397C157.827 59.8303 157.948 60.3763 157.948 61.035V65H157.025V61.126C157.025 60.4067 156.843 59.865 156.479 59.501C156.124 59.1283 155.621 58.942 154.971 58.942C154.486 58.942 154.061 59.0417 153.697 59.241C153.342 59.4317 153.064 59.7133 152.865 60.086C152.674 60.45 152.579 60.892 152.579 61.412V65H151.656V58.175H152.54V60.047L152.397 59.696C152.614 59.202 152.96 58.8163 153.437 58.539C153.914 58.253 154.481 58.11 155.14 58.11ZM163.158 65.065C162.508 65.065 161.923 64.9177 161.403 64.623C160.892 64.3283 160.489 63.921 160.194 63.401C159.9 62.8723 159.752 62.2657 159.752 61.581C159.752 60.8877 159.9 60.281 160.194 59.761C160.489 59.241 160.892 58.838 161.403 58.552C161.923 58.2573 162.508 58.11 163.158 58.11C163.756 58.11 164.289 58.2443 164.757 58.513C165.234 58.7817 165.611 59.176 165.888 59.696C166.174 60.2073 166.317 60.8357 166.317 61.581C166.317 62.3177 166.179 62.946 165.901 63.466C165.624 63.986 165.247 64.3847 164.77 64.662C164.302 64.9307 163.765 65.065 163.158 65.065ZM163.223 64.246C163.709 64.246 164.142 64.1377 164.523 63.921C164.913 63.6957 165.217 63.3837 165.433 62.985C165.659 62.5777 165.771 62.1097 165.771 61.581C165.771 61.0437 165.659 60.5757 165.433 60.177C165.217 59.7783 164.913 59.4707 164.523 59.254C164.142 59.0287 163.709 58.916 163.223 58.916C162.747 58.916 162.318 59.0287 161.936 59.254C161.555 59.4707 161.252 59.7783 161.026 60.177C160.801 60.5757 160.688 61.0437 160.688 61.581C160.688 62.1097 160.801 62.5777 161.026 62.985C161.252 63.3837 161.555 63.6957 161.936 63.921C162.318 64.1377 162.747 64.246 163.223 64.246ZM165.797 65V62.946L165.888 61.568L165.758 60.19V55.354H166.681V65H165.797ZM176.138 58.11C176.693 58.11 177.178 58.2183 177.594 58.435C178.019 58.643 178.348 58.9637 178.582 59.397C178.825 59.8303 178.946 60.3763 178.946 61.035V65H178.023V61.126C178.023 60.4067 177.841 59.865 177.477 59.501C177.122 59.1283 176.619 58.942 175.969 58.942C175.484 58.942 175.059 59.0417 174.695 59.241C174.34 59.4317 174.063 59.7133 173.863 60.086C173.673 60.45 173.577 60.892 173.577 61.412V65H172.654V55.354H173.577V60.047L173.395 59.696C173.612 59.202 173.959 58.8163 174.435 58.539C174.912 58.253 175.48 58.11 176.138 58.11ZM184.221 65.065C183.563 65.065 182.969 64.9177 182.44 64.623C181.92 64.3197 181.509 63.908 181.205 63.388C180.902 62.8593 180.75 62.257 180.75 61.581C180.75 60.8963 180.902 60.294 181.205 59.774C181.509 59.254 181.92 58.8467 182.44 58.552C182.96 58.2573 183.554 58.11 184.221 58.11C184.897 58.11 185.495 58.2573 186.015 58.552C186.544 58.8467 186.956 59.254 187.25 59.774C187.554 60.294 187.705 60.8963 187.705 61.581C187.705 62.257 187.554 62.8593 187.25 63.388C186.956 63.908 186.544 64.3197 186.015 64.623C185.487 64.9177 184.889 65.065 184.221 65.065ZM184.221 64.246C184.715 64.246 185.153 64.1377 185.534 63.921C185.916 63.6957 186.215 63.3837 186.431 62.985C186.657 62.5777 186.769 62.1097 186.769 61.581C186.769 61.0437 186.657 60.5757 186.431 60.177C186.215 59.7783 185.916 59.4707 185.534 59.254C185.153 59.0287 184.72 58.916 184.234 58.916C183.749 58.916 183.316 59.0287 182.934 59.254C182.553 59.4707 182.25 59.7783 182.024 60.177C181.799 60.5757 181.686 61.0437 181.686 61.581C181.686 62.1097 181.799 62.5777 182.024 62.985C182.25 63.3837 182.553 63.6957 182.934 63.921C183.316 64.1377 183.745 64.246 184.221 64.246ZM190.79 65L188.216 58.175H189.1L191.44 64.506H191.037L193.442 58.175H194.235L196.614 64.506H196.211L198.59 58.175H199.435L196.848 65H195.977L193.689 59.046H193.962L191.661 65H190.79ZM207.126 65.065C206.416 65.065 205.792 64.9177 205.254 64.623C204.717 64.3197 204.297 63.908 203.993 63.388C203.69 62.8593 203.538 62.257 203.538 61.581C203.538 60.905 203.681 60.307 203.967 59.787C204.262 59.267 204.661 58.8597 205.163 58.565C205.675 58.2617 206.247 58.11 206.879 58.11C207.521 58.11 208.088 58.2573 208.582 58.552C209.085 58.838 209.479 59.2453 209.765 59.774C210.051 60.294 210.194 60.8963 210.194 61.581C210.194 61.6243 210.19 61.672 210.181 61.724C210.181 61.7673 210.181 61.815 210.181 61.867H204.24V61.178H209.687L209.323 61.451C209.323 60.957 209.215 60.5193 208.998 60.138C208.79 59.748 208.504 59.4447 208.14 59.228C207.776 59.0113 207.356 58.903 206.879 58.903C206.411 58.903 205.991 59.0113 205.618 59.228C205.246 59.4447 204.955 59.748 204.747 60.138C204.539 60.528 204.435 60.9743 204.435 61.477V61.62C204.435 62.14 204.548 62.5993 204.773 62.998C205.007 63.388 205.328 63.6957 205.735 63.921C206.151 64.1377 206.624 64.246 207.152 64.246C207.568 64.246 207.954 64.1723 208.309 64.025C208.673 63.8777 208.985 63.6523 209.245 63.349L209.765 63.947C209.462 64.311 209.081 64.5883 208.621 64.779C208.171 64.9697 207.672 65.065 207.126 65.065ZM216.16 65V63.492L216.121 63.245V60.723C216.121 60.1423 215.956 59.696 215.627 59.384C215.306 59.072 214.825 58.916 214.184 58.916C213.742 58.916 213.321 58.9897 212.923 59.137C212.524 59.2843 212.186 59.4793 211.909 59.722L211.493 59.033C211.839 58.7383 212.255 58.513 212.741 58.357C213.226 58.1923 213.737 58.11 214.275 58.11C215.159 58.11 215.839 58.331 216.316 58.773C216.801 59.2063 217.044 59.8693 217.044 60.762V65H216.16ZM213.807 65.065C213.295 65.065 212.849 64.9827 212.468 64.818C212.095 64.6447 211.809 64.4107 211.61 64.116C211.41 63.8127 211.311 63.466 211.311 63.076C211.311 62.7207 211.393 62.4 211.558 62.114C211.731 61.8193 212.008 61.5853 212.39 61.412C212.78 61.23 213.3 61.139 213.95 61.139H216.303V61.828H213.976C213.317 61.828 212.858 61.945 212.598 62.179C212.346 62.413 212.221 62.7033 212.221 63.05C212.221 63.44 212.372 63.752 212.676 63.986C212.979 64.22 213.404 64.337 213.95 64.337C214.47 64.337 214.916 64.22 215.289 63.986C215.67 63.7433 215.947 63.3967 216.121 62.946L216.329 63.583C216.155 64.0337 215.852 64.3933 215.419 64.662C214.994 64.9307 214.457 65.065 213.807 65.065ZM222.385 65.065C221.709 65.065 221.102 64.9177 220.565 64.623C220.036 64.3197 219.62 63.908 219.317 63.388C219.013 62.8593 218.862 62.257 218.862 61.581C218.862 60.8963 219.013 60.294 219.317 59.774C219.62 59.254 220.036 58.8467 220.565 58.552C221.102 58.2573 221.709 58.11 222.385 58.11C222.965 58.11 223.49 58.2227 223.958 58.448C224.426 58.6733 224.794 59.0113 225.063 59.462L224.374 59.93C224.14 59.5833 223.849 59.3277 223.503 59.163C223.156 58.9983 222.779 58.916 222.372 58.916C221.886 58.916 221.449 59.0287 221.059 59.254C220.669 59.4707 220.361 59.7783 220.136 60.177C219.91 60.5757 219.798 61.0437 219.798 61.581C219.798 62.1183 219.91 62.5863 220.136 62.985C220.361 63.3837 220.669 63.6957 221.059 63.921C221.449 64.1377 221.886 64.246 222.372 64.246C222.779 64.246 223.156 64.1637 223.503 63.999C223.849 63.8343 224.14 63.583 224.374 63.245L225.063 63.713C224.794 64.155 224.426 64.493 223.958 64.727C223.49 64.9523 222.965 65.065 222.385 65.065ZM230.258 58.11C230.813 58.11 231.298 58.2183 231.714 58.435C232.139 58.643 232.468 58.9637 232.702 59.397C232.945 59.8303 233.066 60.3763 233.066 61.035V65H232.143V61.126C232.143 60.4067 231.961 59.865 231.597 59.501C231.242 59.1283 230.739 58.942 230.089 58.942C229.604 58.942 229.179 59.0417 228.815 59.241C228.46 59.4317 228.183 59.7133 227.983 60.086C227.793 60.45 227.697 60.892 227.697 61.412V65H226.774V55.354H227.697V60.047L227.515 59.696C227.732 59.202 228.079 58.8163 228.555 58.539C229.032 58.253 229.6 58.11 230.258 58.11ZM241.744 65.065C241.085 65.065 240.491 64.9177 239.963 64.623C239.443 64.3197 239.031 63.908 238.728 63.388C238.424 62.8593 238.273 62.257 238.273 61.581C238.273 60.8963 238.424 60.294 238.728 59.774C239.031 59.254 239.443 58.8467 239.963 58.552C240.483 58.2573 241.076 58.11 241.744 58.11C242.42 58.11 243.018 58.2573 243.538 58.552C244.066 58.8467 244.478 59.254 244.773 59.774C245.076 60.294 245.228 60.8963 245.228 61.581C245.228 62.257 245.076 62.8593 244.773 63.388C244.478 63.908 244.066 64.3197 243.538 64.623C243.009 64.9177 242.411 65.065 241.744 65.065ZM241.744 64.246C242.238 64.246 242.675 64.1377 243.057 63.921C243.438 63.6957 243.737 63.3837 243.954 62.985C244.179 62.5777 244.292 62.1097 244.292 61.581C244.292 61.0437 244.179 60.5757 243.954 60.177C243.737 59.7783 243.438 59.4707 243.057 59.254C242.675 59.0287 242.242 58.916 241.757 58.916C241.271 58.916 240.838 59.0287 240.457 59.254C240.075 59.4707 239.772 59.7783 239.547 60.177C239.321 60.5757 239.209 61.0437 239.209 61.581C239.209 62.1097 239.321 62.5777 239.547 62.985C239.772 63.3837 240.075 63.6957 240.457 63.921C240.838 64.1377 241.267 64.246 241.744 64.246ZM250.596 58.11C251.151 58.11 251.636 58.2183 252.052 58.435C252.477 58.643 252.806 58.9637 253.04 59.397C253.283 59.8303 253.404 60.3763 253.404 61.035V65H252.481V61.126C252.481 60.4067 252.299 59.865 251.935 59.501C251.58 59.1283 251.077 58.942 250.427 58.942C249.942 58.942 249.517 59.0417 249.153 59.241C248.798 59.4317 248.521 59.7133 248.321 60.086C248.131 60.45 248.035 60.892 248.035 61.412V65H247.112V58.175H247.996V60.047L247.853 59.696C248.07 59.202 248.417 58.8163 248.893 58.539C249.37 58.253 249.938 58.11 250.596 58.11ZM258.796 65.065C258.086 65.065 257.462 64.9177 256.924 64.623C256.387 64.3197 255.967 63.908 255.663 63.388C255.36 62.8593 255.208 62.257 255.208 61.581C255.208 60.905 255.351 60.307 255.637 59.787C255.932 59.267 256.331 58.8597 256.833 58.565C257.345 58.2617 257.917 58.11 258.549 58.11C259.191 58.11 259.758 58.2573 260.252 58.552C260.755 58.838 261.149 59.2453 261.435 59.774C261.721 60.294 261.864 60.8963 261.864 61.581C261.864 61.6243 261.86 61.672 261.851 61.724C261.851 61.7673 261.851 61.815 261.851 61.867H255.91V61.178H261.357L260.993 61.451C260.993 60.957 260.885 60.5193 260.668 60.138C260.46 59.748 260.174 59.4447 259.81 59.228C259.446 59.0113 259.026 58.903 258.549 58.903C258.081 58.903 257.661 59.0113 257.288 59.228C256.916 59.4447 256.625 59.748 256.417 60.138C256.209 60.528 256.105 60.9743 256.105 61.477V61.62C256.105 62.14 256.218 62.5993 256.443 62.998C256.677 63.388 256.998 63.6957 257.405 63.921C257.821 64.1377 258.294 64.246 258.822 64.246C259.238 64.246 259.624 64.1723 259.979 64.025C260.343 63.8777 260.655 63.6523 260.915 63.349L261.435 63.947C261.132 64.311 260.751 64.5883 260.291 64.779C259.841 64.9697 259.342 65.065 258.796 65.065ZM269.927 65.065C269.269 65.065 268.675 64.9177 268.146 64.623C267.626 64.3197 267.215 63.908 266.911 63.388C266.608 62.8593 266.456 62.257 266.456 61.581C266.456 60.8963 266.608 60.294 266.911 59.774C267.215 59.254 267.626 58.8467 268.146 58.552C268.666 58.2573 269.26 58.11 269.927 58.11C270.603 58.11 271.201 58.2573 271.721 58.552C272.25 58.8467 272.662 59.254 272.956 59.774C273.26 60.294 273.411 60.8963 273.411 61.581C273.411 62.257 273.26 62.8593 272.956 63.388C272.662 63.908 272.25 64.3197 271.721 64.623C271.193 64.9177 270.595 65.065 269.927 65.065ZM269.927 64.246C270.421 64.246 270.859 64.1377 271.24 63.921C271.622 63.6957 271.921 63.3837 272.137 62.985C272.363 62.5777 272.475 62.1097 272.475 61.581C272.475 61.0437 272.363 60.5757 272.137 60.177C271.921 59.7783 271.622 59.4707 271.24 59.254C270.859 59.0287 270.426 58.916 269.94 58.916C269.455 58.916 269.022 59.0287 268.64 59.254C268.259 59.4707 267.956 59.7783 267.73 60.177C267.505 60.5757 267.392 61.0437 267.392 61.581C267.392 62.1097 267.505 62.5777 267.73 62.985C267.956 63.3837 268.259 63.6957 268.64 63.921C269.022 64.1377 269.451 64.246 269.927 64.246ZM275.452 65V57.317C275.452 56.7103 275.629 56.2207 275.985 55.848C276.34 55.4753 276.851 55.289 277.519 55.289C277.779 55.289 278.03 55.3237 278.273 55.393C278.515 55.4623 278.719 55.5707 278.884 55.718L278.572 56.407C278.442 56.2943 278.29 56.212 278.117 56.16C277.943 56.0993 277.757 56.069 277.558 56.069C277.168 56.069 276.869 56.1773 276.661 56.394C276.453 56.6107 276.349 56.9313 276.349 57.356V58.396L276.375 58.825V65H275.452ZM274.23 58.942V58.175H278.455V58.942H274.23ZM28.069 85.065C27.4103 85.065 26.8167 84.9177 26.288 84.623C25.768 84.3197 25.3563 83.908 25.053 83.388C24.7497 82.8593 24.598 82.257 24.598 81.581C24.598 80.8963 24.7497 80.294 25.053 79.774C25.3563 79.254 25.768 78.8467 26.288 78.552C26.808 78.2573 27.4017 78.11 28.069 78.11C28.745 78.11 29.343 78.2573 29.863 78.552C30.3917 78.8467 30.8033 79.254 31.098 79.774C31.4013 80.294 31.553 80.8963 31.553 81.581C31.553 82.257 31.4013 82.8593 31.098 83.388C30.8033 83.908 30.3917 84.3197 29.863 84.623C29.3343 84.9177 28.7363 85.065 28.069 85.065ZM28.069 84.246C28.563 84.246 29.0007 84.1377 29.382 83.921C29.7633 83.6957 30.0623 83.3837 30.279 82.985C30.5043 82.5777 30.617 82.1097 30.617 81.581C30.617 81.0437 30.5043 80.5757 30.279 80.177C30.0623 79.7783 29.7633 79.4707 29.382 79.254C29.0007 79.0287 28.5673 78.916 28.082 78.916C27.5967 78.916 27.1633 79.0287 26.782 79.254C26.4007 79.4707 26.0973 79.7783 25.872 80.177C25.6467 80.5757 25.534 81.0437 25.534 81.581C25.534 82.1097 25.6467 82.5777 25.872 82.985C26.0973 83.3837 26.4007 83.6957 26.782 83.921C27.1633 84.1377 27.5923 84.246 28.069 84.246ZM36.2584 85.065C35.6777 85.065 35.1707 84.9567 34.7374 84.74C34.3041 84.5233 33.9661 84.1983 33.7234 83.765C33.4894 83.3317 33.3724 82.79 33.3724 82.14V78.175H34.2954V82.036C34.2954 82.764 34.4731 83.3143 34.8284 83.687C35.1924 84.051 35.6994 84.233 36.3494 84.233C36.8261 84.233 37.2377 84.1377 37.5844 83.947C37.9397 83.7477 38.2084 83.4617 38.3904 83.089C38.5811 82.7163 38.6764 82.27 38.6764 81.75V78.175H39.5994V85H38.7154V83.128L38.8584 83.466C38.6417 83.9687 38.3037 84.363 37.8444 84.649C37.3937 84.9263 36.8651 85.065 36.2584 85.065ZM42.1718 85V78.175H43.0558V80.034L42.9648 79.709C43.1554 79.189 43.4761 78.7947 43.9268 78.526C44.3774 78.2487 44.9364 78.11 45.6038 78.11V79.007C45.5691 79.007 45.5344 79.007 45.4998 79.007C45.4651 78.9983 45.4304 78.994 45.3958 78.994C44.6764 78.994 44.1131 79.215 43.7058 79.657C43.2984 80.0903 43.0948 80.71 43.0948 81.516V85H42.1718ZM50.7919 85V78.175H51.6759V80.034L51.5849 79.709C51.7755 79.189 52.0962 78.7947 52.5469 78.526C52.9975 78.2487 53.5565 78.11 54.2239 78.11V79.007C54.1892 79.007 54.1545 79.007 54.1199 79.007C54.0852 78.9983 54.0505 78.994 54.0159 78.994C53.2965 78.994 52.7332 79.215 52.3259 79.657C51.9185 80.0903 51.7149 80.71 51.7149 81.516V85H50.7919ZM58.6266 85.065C57.968 85.065 57.3743 84.9177 56.8456 84.623C56.3256 84.3197 55.914 83.908 55.6106 83.388C55.3073 82.8593 55.1556 82.257 55.1556 81.581C55.1556 80.8963 55.3073 80.294 55.6106 79.774C55.914 79.254 56.3256 78.8467 56.8456 78.552C57.3656 78.2573 57.9593 78.11 58.6266 78.11C59.3026 78.11 59.9006 78.2573 60.4206 78.552C60.9493 78.8467 61.361 79.254 61.6556 79.774C61.959 80.294 62.1106 80.8963 62.1106 81.581C62.1106 82.257 61.959 82.8593 61.6556 83.388C61.361 83.908 60.9493 84.3197 60.4206 84.623C59.892 84.9177 59.294 85.065 58.6266 85.065ZM58.6266 84.246C59.1206 84.246 59.5583 84.1377 59.9396 83.921C60.321 83.6957 60.62 83.3837 60.8366 82.985C61.062 82.5777 61.1746 82.1097 61.1746 81.581C61.1746 81.0437 61.062 80.5757 60.8366 80.177C60.62 79.7783 60.321 79.4707 59.9396 79.254C59.5583 79.0287 59.125 78.916 58.6396 78.916C58.1543 78.916 57.721 79.0287 57.3396 79.254C56.9583 79.4707 56.655 79.7783 56.4296 80.177C56.2043 80.5757 56.0916 81.0437 56.0916 81.581C56.0916 82.1097 56.2043 82.5777 56.4296 82.985C56.655 83.3837 56.9583 83.6957 57.3396 83.921C57.721 84.1377 58.15 84.246 58.6266 84.246ZM63.995 85V75.354H64.918V85H63.995ZM70.3852 85.065C69.6746 85.065 69.0506 84.9177 68.5132 84.623C67.9759 84.3197 67.5556 83.908 67.2522 83.388C66.9489 82.8593 66.7972 82.257 66.7972 81.581C66.7972 80.905 66.9402 80.307 67.2262 79.787C67.5209 79.267 67.9196 78.8597 68.4222 78.565C68.9336 78.2617 69.5056 78.11 70.1382 78.11C70.7796 78.11 71.3472 78.2573 71.8412 78.552C72.3439 78.838 72.7382 79.2453 73.0242 79.774C73.3102 80.294 73.4532 80.8963 73.4532 81.581C73.4532 81.6243 73.4489 81.672 73.4402 81.724C73.4402 81.7673 73.4402 81.815 73.4402 81.867H67.4992V81.178H72.9462L72.5822 81.451C72.5822 80.957 72.4739 80.5193 72.2572 80.138C72.0492 79.748 71.7632 79.4447 71.3992 79.228C71.0352 79.0113 70.6149 78.903 70.1382 78.903C69.6702 78.903 69.2499 79.0113 68.8772 79.228C68.5046 79.4447 68.2142 79.748 68.0062 80.138C67.7982 80.528 67.6942 80.9743 67.6942 81.477V81.62C67.6942 82.14 67.8069 82.5993 68.0322 82.998C68.2662 83.388 68.5869 83.6957 68.9942 83.921C69.4102 84.1377 69.8826 84.246 70.4112 84.246C70.8272 84.246 71.2129 84.1723 71.5682 84.025C71.9322 83.8777 72.2442 83.6523 72.5042 83.349L73.0242 83.947C72.7209 84.311 72.3396 84.5883 71.8802 84.779C71.4296 84.9697 70.9312 85.065 70.3852 85.065ZM77.1649 85.065C76.6016 85.065 76.0686 84.987 75.5659 84.831C75.0633 84.6663 74.6689 84.4627 74.3829 84.22L74.7989 83.492C75.0763 83.7 75.4316 83.882 75.8649 84.038C76.2983 84.1853 76.7533 84.259 77.2299 84.259C77.8799 84.259 78.3479 84.1593 78.6339 83.96C78.9199 83.752 79.0629 83.479 79.0629 83.141C79.0629 82.8897 78.9806 82.6947 78.8159 82.556C78.6599 82.4087 78.4519 82.3003 78.1919 82.231C77.9319 82.153 77.6416 82.088 77.3209 82.036C77.0003 81.984 76.6796 81.9233 76.3589 81.854C76.0469 81.7847 75.7609 81.685 75.5009 81.555C75.2409 81.4163 75.0286 81.23 74.8639 80.996C74.7079 80.762 74.6299 80.45 74.6299 80.06C74.6299 79.6873 74.7339 79.3537 74.9419 79.059C75.1499 78.7643 75.4533 78.5347 75.8519 78.37C76.2593 78.1967 76.7533 78.11 77.3339 78.11C77.7759 78.11 78.2179 78.1707 78.6599 78.292C79.1019 78.4047 79.4659 78.5563 79.7519 78.747L79.3489 79.488C79.0456 79.28 78.7206 79.1327 78.3739 79.046C78.0273 78.9507 77.6806 78.903 77.3339 78.903C76.7186 78.903 76.2636 79.0113 75.9689 79.228C75.6829 79.436 75.5399 79.7047 75.5399 80.034C75.5399 80.294 75.6179 80.4977 75.7739 80.645C75.9386 80.7923 76.1509 80.9093 76.4109 80.996C76.6796 81.074 76.9699 81.139 77.2819 81.191C77.6026 81.243 77.9189 81.308 78.2309 81.386C78.5516 81.4553 78.8419 81.555 79.1019 81.685C79.3706 81.8063 79.5829 81.984 79.7389 82.218C79.9036 82.4433 79.9859 82.7423 79.9859 83.115C79.9859 83.5137 79.8733 83.8603 79.6479 84.155C79.4313 84.441 79.1106 84.6663 78.6859 84.831C78.2699 84.987 77.7629 85.065 77.1649 85.065ZM85.0819 85V78.175H86.0049V85H85.0819ZM85.5499 76.667C85.3593 76.667 85.1989 76.602 85.0689 76.472C84.9389 76.342 84.8739 76.186 84.8739 76.004C84.8739 75.822 84.9389 75.6703 85.0689 75.549C85.1989 75.419 85.3593 75.354 85.5499 75.354C85.7406 75.354 85.9009 75.4147 86.0309 75.536C86.1609 75.6573 86.2259 75.809 86.2259 75.991C86.2259 76.1817 86.1609 76.342 86.0309 76.472C85.9096 76.602 85.7493 76.667 85.5499 76.667ZM97.1011 78.11C97.6558 78.11 98.1368 78.2183 98.5441 78.435C98.9601 78.643 99.2808 78.9637 99.5061 79.397C99.7401 79.8303 99.8571 80.3763 99.8571 81.035V85H98.9341V81.126C98.9341 80.4067 98.7608 79.865 98.4141 79.501C98.0761 79.1283 97.5951 78.942 96.9711 78.942C96.5031 78.942 96.0958 79.0417 95.7491 79.241C95.4111 79.4317 95.1468 79.7133 94.9561 80.086C94.7741 80.45 94.6831 80.892 94.6831 81.412V85H93.7601V81.126C93.7601 80.4067 93.5868 79.865 93.2401 79.501C92.8935 79.1283 92.4081 78.942 91.7841 78.942C91.3248 78.942 90.9218 79.0417 90.5751 79.241C90.2285 79.4317 89.9598 79.7133 89.7691 80.086C89.5871 80.45 89.4961 80.892 89.4961 81.412V85H88.5731V78.175H89.4571V80.021L89.3141 79.696C89.5221 79.202 89.8558 78.8163 90.3151 78.539C90.7831 78.253 91.3335 78.11 91.9661 78.11C92.6335 78.11 93.2011 78.279 93.6691 78.617C94.1371 78.9463 94.4405 79.4447 94.5791 80.112L94.2151 79.969C94.4145 79.4143 94.7655 78.968 95.2681 78.63C95.7795 78.2833 96.3905 78.11 97.1011 78.11ZM105.883 85.065C105.294 85.065 104.761 84.9307 104.284 84.662C103.808 84.3847 103.426 83.9903 103.14 83.479C102.863 82.959 102.724 82.3263 102.724 81.581C102.724 80.8357 102.863 80.2073 103.14 79.696C103.418 79.176 103.795 78.7817 104.271 78.513C104.748 78.2443 105.285 78.11 105.883 78.11C106.533 78.11 107.114 78.2573 107.625 78.552C108.145 78.838 108.553 79.2453 108.847 79.774C109.142 80.294 109.289 80.8963 109.289 81.581C109.289 82.2743 109.142 82.881 108.847 83.401C108.553 83.921 108.145 84.3283 107.625 84.623C107.114 84.9177 106.533 85.065 105.883 85.065ZM102.36 87.522V78.175H103.244V80.229L103.153 81.594L103.283 82.972V87.522H102.36ZM105.818 84.246C106.304 84.246 106.737 84.1377 107.118 83.921C107.5 83.6957 107.803 83.3837 108.028 82.985C108.254 82.5777 108.366 82.1097 108.366 81.581C108.366 81.0523 108.254 80.5887 108.028 80.19C107.803 79.7913 107.5 79.4793 107.118 79.254C106.737 79.0287 106.304 78.916 105.818 78.916C105.333 78.916 104.895 79.0287 104.505 79.254C104.124 79.4793 103.821 79.7913 103.595 80.19C103.379 80.5887 103.27 81.0523 103.27 81.581C103.27 82.1097 103.379 82.5777 103.595 82.985C103.821 83.3837 104.124 83.6957 104.505 83.921C104.895 84.1377 105.333 84.246 105.818 84.246ZM115.41 85V83.492L115.371 83.245V80.723C115.371 80.1423 115.206 79.696 114.877 79.384C114.556 79.072 114.075 78.916 113.434 78.916C112.992 78.916 112.571 78.9897 112.173 79.137C111.774 79.2843 111.436 79.4793 111.159 79.722L110.743 79.033C111.089 78.7383 111.505 78.513 111.991 78.357C112.476 78.1923 112.987 78.11 113.525 78.11C114.409 78.11 115.089 78.331 115.566 78.773C116.051 79.2063 116.294 79.8693 116.294 80.762V85H115.41ZM113.057 85.065C112.545 85.065 112.099 84.9827 111.718 84.818C111.345 84.6447 111.059 84.4107 110.86 84.116C110.66 83.8127 110.561 83.466 110.561 83.076C110.561 82.7207 110.643 82.4 110.808 82.114C110.981 81.8193 111.258 81.5853 111.64 81.412C112.03 81.23 112.55 81.139 113.2 81.139H115.553V81.828H113.226C112.567 81.828 112.108 81.945 111.848 82.179C111.596 82.413 111.471 82.7033 111.471 83.05C111.471 83.44 111.622 83.752 111.926 83.986C112.229 84.22 112.654 84.337 113.2 84.337C113.72 84.337 114.166 84.22 114.539 83.986C114.92 83.7433 115.197 83.3967 115.371 82.946L115.579 83.583C115.405 84.0337 115.102 84.3933 114.669 84.662C114.244 84.9307 113.707 85.065 113.057 85.065ZM121.635 85.065C120.959 85.065 120.352 84.9177 119.815 84.623C119.286 84.3197 118.87 83.908 118.567 83.388C118.263 82.8593 118.112 82.257 118.112 81.581C118.112 80.8963 118.263 80.294 118.567 79.774C118.87 79.254 119.286 78.8467 119.815 78.552C120.352 78.2573 120.959 78.11 121.635 78.11C122.215 78.11 122.74 78.2227 123.208 78.448C123.676 78.6733 124.044 79.0113 124.313 79.462L123.624 79.93C123.39 79.5833 123.099 79.3277 122.753 79.163C122.406 78.9983 122.029 78.916 121.622 78.916C121.136 78.916 120.699 79.0287 120.309 79.254C119.919 79.4707 119.611 79.7783 119.386 80.177C119.16 80.5757 119.048 81.0437 119.048 81.581C119.048 82.1183 119.16 82.5863 119.386 82.985C119.611 83.3837 119.919 83.6957 120.309 83.921C120.699 84.1377 121.136 84.246 121.622 84.246C122.029 84.246 122.406 84.1637 122.753 83.999C123.099 83.8343 123.39 83.583 123.624 83.245L124.313 83.713C124.044 84.155 123.676 84.493 123.208 84.727C122.74 84.9523 122.215 85.065 121.635 85.065ZM128.36 85.065C127.719 85.065 127.225 84.8917 126.878 84.545C126.531 84.1983 126.358 83.7087 126.358 83.076V76.667H127.281V83.024C127.281 83.4227 127.381 83.7303 127.58 83.947C127.788 84.1637 128.083 84.272 128.464 84.272C128.871 84.272 129.209 84.155 129.478 83.921L129.803 84.584C129.621 84.7487 129.4 84.87 129.14 84.948C128.889 85.026 128.629 85.065 128.36 85.065ZM125.136 78.942V78.175H129.361V78.942H125.136ZM133.316 85.065C132.753 85.065 132.22 84.987 131.717 84.831C131.215 84.6663 130.82 84.4627 130.534 84.22L130.95 83.492C131.228 83.7 131.583 83.882 132.016 84.038C132.45 84.1853 132.905 84.259 133.381 84.259C134.031 84.259 134.499 84.1593 134.785 83.96C135.071 83.752 135.214 83.479 135.214 83.141C135.214 82.8897 135.132 82.6947 134.967 82.556C134.811 82.4087 134.603 82.3003 134.343 82.231C134.083 82.153 133.793 82.088 133.472 82.036C133.152 81.984 132.831 81.9233 132.51 81.854C132.198 81.7847 131.912 81.685 131.652 81.555C131.392 81.4163 131.18 81.23 131.015 80.996C130.859 80.762 130.781 80.45 130.781 80.06C130.781 79.6873 130.885 79.3537 131.093 79.059C131.301 78.7643 131.605 78.5347 132.003 78.37C132.411 78.1967 132.905 78.11 133.485 78.11C133.927 78.11 134.369 78.1707 134.811 78.292C135.253 78.4047 135.617 78.5563 135.903 78.747L135.5 79.488C135.197 79.28 134.872 79.1327 134.525 79.046C134.179 78.9507 133.832 78.903 133.485 78.903C132.87 78.903 132.415 79.0113 132.12 79.228C131.834 79.436 131.691 79.7047 131.691 80.034C131.691 80.294 131.769 80.4977 131.925 80.645C132.09 80.7923 132.302 80.9093 132.562 80.996C132.831 81.074 133.121 81.139 133.433 81.191C133.754 81.243 134.07 81.308 134.382 81.386C134.703 81.4553 134.993 81.555 135.253 81.685C135.522 81.8063 135.734 81.984 135.89 82.218C136.055 82.4433 136.137 82.7423 136.137 83.115C136.137 83.5137 136.025 83.8603 135.799 84.155C135.583 84.441 135.262 84.6663 134.837 84.831C134.421 84.987 133.914 85.065 133.316 85.065ZM141.285 87.587C140.965 87.587 140.657 87.535 140.362 87.431C140.076 87.327 139.829 87.171 139.621 86.963L140.05 86.274C140.224 86.4387 140.41 86.5643 140.609 86.651C140.817 86.7463 141.047 86.794 141.298 86.794C141.602 86.794 141.862 86.7073 142.078 86.534C142.304 86.3693 142.516 86.0747 142.715 85.65L143.157 84.649L143.261 84.506L146.069 78.175H146.979L143.56 85.819C143.37 86.261 143.157 86.612 142.923 86.872C142.698 87.132 142.451 87.314 142.182 87.418C141.914 87.5307 141.615 87.587 141.285 87.587ZM143.105 85.195L139.959 78.175H140.921L143.703 84.441L143.105 85.195ZM150.871 85.065C150.212 85.065 149.618 84.9177 149.09 84.623C148.57 84.3197 148.158 83.908 147.855 83.388C147.551 82.8593 147.4 82.257 147.4 81.581C147.4 80.8963 147.551 80.294 147.855 79.774C148.158 79.254 148.57 78.8467 149.09 78.552C149.61 78.2573 150.203 78.11 150.871 78.11C151.547 78.11 152.145 78.2573 152.665 78.552C153.193 78.8467 153.605 79.254 153.9 79.774C154.203 80.294 154.355 80.8963 154.355 81.581C154.355 82.257 154.203 82.8593 153.9 83.388C153.605 83.908 153.193 84.3197 152.665 84.623C152.136 84.9177 151.538 85.065 150.871 85.065ZM150.871 84.246C151.365 84.246 151.802 84.1377 152.184 83.921C152.565 83.6957 152.864 83.3837 153.081 82.985C153.306 82.5777 153.419 82.1097 153.419 81.581C153.419 81.0437 153.306 80.5757 153.081 80.177C152.864 79.7783 152.565 79.4707 152.184 79.254C151.802 79.0287 151.369 78.916 150.884 78.916C150.398 78.916 149.965 79.0287 149.584 79.254C149.202 79.4707 148.899 79.7783 148.674 80.177C148.448 80.5757 148.336 81.0437 148.336 81.581C148.336 82.1097 148.448 82.5777 148.674 82.985C148.899 83.3837 149.202 83.6957 149.584 83.921C149.965 84.1377 150.394 84.246 150.871 84.246ZM159.06 85.065C158.479 85.065 157.972 84.9567 157.539 84.74C157.106 84.5233 156.768 84.1983 156.525 83.765C156.291 83.3317 156.174 82.79 156.174 82.14V78.175H157.097V82.036C157.097 82.764 157.275 83.3143 157.63 83.687C157.994 84.051 158.501 84.233 159.151 84.233C159.628 84.233 160.039 84.1377 160.386 83.947C160.741 83.7477 161.01 83.4617 161.192 83.089C161.383 82.7163 161.478 82.27 161.478 81.75V78.175H162.401V85H161.517V83.128L161.66 83.466C161.443 83.9687 161.105 84.363 160.646 84.649C160.195 84.9263 159.667 85.065 159.06 85.065ZM164.974 85V78.175H165.858V80.034L165.767 79.709C165.957 79.189 166.278 78.7947 166.729 78.526C167.179 78.2487 167.738 78.11 168.406 78.11V79.007C168.371 79.007 168.336 79.007 168.302 79.007C168.267 78.9983 168.232 78.994 168.198 78.994C167.478 78.994 166.915 79.215 166.508 79.657C166.1 80.0903 165.897 80.71 165.897 81.516V85H164.974ZM177.117 85.065C176.527 85.065 175.994 84.9307 175.518 84.662C175.041 84.3847 174.66 83.9903 174.374 83.479C174.096 82.959 173.958 82.3263 173.958 81.581C173.958 80.8357 174.096 80.2073 174.374 79.696C174.651 79.176 175.028 78.7817 175.505 78.513C175.981 78.2443 176.519 78.11 177.117 78.11C177.767 78.11 178.347 78.2573 178.859 78.552C179.379 78.838 179.786 79.2453 180.081 79.774C180.375 80.294 180.523 80.8963 180.523 81.581C180.523 82.2743 180.375 82.881 180.081 83.401C179.786 83.921 179.379 84.3283 178.859 84.623C178.347 84.9177 177.767 85.065 177.117 85.065ZM173.594 87.522V78.175H174.478V80.229L174.387 81.594L174.517 82.972V87.522H173.594ZM177.052 84.246C177.537 84.246 177.97 84.1377 178.352 83.921C178.733 83.6957 179.036 83.3837 179.262 82.985C179.487 82.5777 179.6 82.1097 179.6 81.581C179.6 81.0523 179.487 80.5887 179.262 80.19C179.036 79.7913 178.733 79.4793 178.352 79.254C177.97 79.0287 177.537 78.916 177.052 78.916C176.566 78.916 176.129 79.0287 175.739 79.254C175.357 79.4793 175.054 79.7913 174.829 80.19C174.612 80.5887 174.504 81.0523 174.504 81.581C174.504 82.1097 174.612 82.5777 174.829 82.985C175.054 83.3837 175.357 83.6957 175.739 83.921C176.129 84.1377 176.566 84.246 177.052 84.246ZM182.404 85V75.354H183.327V85H182.404ZM190.172 85V83.492L190.133 83.245V80.723C190.133 80.1423 189.969 79.696 189.639 79.384C189.319 79.072 188.838 78.916 188.196 78.916C187.754 78.916 187.334 78.9897 186.935 79.137C186.537 79.2843 186.199 79.4793 185.921 79.722L185.505 79.033C185.852 78.7383 186.268 78.513 186.753 78.357C187.239 78.1923 187.75 78.11 188.287 78.11C189.171 78.11 189.852 78.331 190.328 78.773C190.814 79.2063 191.056 79.8693 191.056 80.762V85H190.172ZM187.819 85.065C187.308 85.065 186.862 84.9827 186.48 84.818C186.108 84.6447 185.822 84.4107 185.622 84.116C185.423 83.8127 185.323 83.466 185.323 83.076C185.323 82.7207 185.406 82.4 185.57 82.114C185.744 81.8193 186.021 81.5853 186.402 81.412C186.792 81.23 187.312 81.139 187.962 81.139H190.315V81.828H187.988C187.33 81.828 186.87 81.945 186.61 82.179C186.359 82.413 186.233 82.7033 186.233 83.05C186.233 83.44 186.385 83.752 186.688 83.986C186.992 84.22 187.416 84.337 187.962 84.337C188.482 84.337 188.929 84.22 189.301 83.986C189.683 83.7433 189.96 83.3967 190.133 82.946L190.341 83.583C190.168 84.0337 189.865 84.3933 189.431 84.662C189.007 84.9307 188.469 85.065 187.819 85.065ZM197.047 78.11C197.602 78.11 198.087 78.2183 198.503 78.435C198.928 78.643 199.257 78.9637 199.491 79.397C199.734 79.8303 199.855 80.3763 199.855 81.035V85H198.932V81.126C198.932 80.4067 198.75 79.865 198.386 79.501C198.031 79.1283 197.528 78.942 196.878 78.942C196.393 78.942 195.968 79.0417 195.604 79.241C195.249 79.4317 194.972 79.7133 194.772 80.086C194.582 80.45 194.486 80.892 194.486 81.412V85H193.563V78.175H194.447V80.047L194.304 79.696C194.521 79.202 194.868 78.8163 195.344 78.539C195.821 78.253 196.389 78.11 197.047 78.11ZM209.235 78.11C209.79 78.11 210.275 78.2183 210.691 78.435C211.116 78.643 211.445 78.9637 211.679 79.397C211.922 79.8303 212.043 80.3763 212.043 81.035V85H211.12V81.126C211.12 80.4067 210.938 79.865 210.574 79.501C210.219 79.1283 209.716 78.942 209.066 78.942C208.581 78.942 208.156 79.0417 207.792 79.241C207.437 79.4317 207.159 79.7133 206.96 80.086C206.769 80.45 206.674 80.892 206.674 81.412V85H205.751V75.354H206.674V80.047L206.492 79.696C206.709 79.202 207.055 78.8163 207.532 78.539C208.009 78.253 208.576 78.11 209.235 78.11ZM217.318 85.065C216.659 85.065 216.066 84.9177 215.537 84.623C215.017 84.3197 214.605 83.908 214.302 83.388C213.999 82.8593 213.847 82.257 213.847 81.581C213.847 80.8963 213.999 80.294 214.302 79.774C214.605 79.254 215.017 78.8467 215.537 78.552C216.057 78.2573 216.651 78.11 217.318 78.11C217.994 78.11 218.592 78.2573 219.112 78.552C219.641 78.8467 220.052 79.254 220.347 79.774C220.65 80.294 220.802 80.8963 220.802 81.581C220.802 82.257 220.65 82.8593 220.347 83.388C220.052 83.908 219.641 84.3197 219.112 84.623C218.583 84.9177 217.985 85.065 217.318 85.065ZM217.318 84.246C217.812 84.246 218.25 84.1377 218.631 83.921C219.012 83.6957 219.311 83.3837 219.528 82.985C219.753 82.5777 219.866 82.1097 219.866 81.581C219.866 81.0437 219.753 80.5757 219.528 80.177C219.311 79.7783 219.012 79.4707 218.631 79.254C218.25 79.0287 217.816 78.916 217.331 78.916C216.846 78.916 216.412 79.0287 216.031 79.254C215.65 79.4707 215.346 79.7783 215.121 80.177C214.896 80.5757 214.783 81.0437 214.783 81.581C214.783 82.1097 214.896 82.5777 215.121 82.985C215.346 83.3837 215.65 83.6957 216.031 83.921C216.412 84.1377 216.841 84.246 217.318 84.246ZM222.686 85V75.354H223.609V85H222.686ZM226.178 85V78.175H227.101V85H226.178ZM226.646 76.667C226.455 76.667 226.295 76.602 226.165 76.472C226.035 76.342 225.97 76.186 225.97 76.004C225.97 75.822 226.035 75.6703 226.165 75.549C226.295 75.419 226.455 75.354 226.646 75.354C226.836 75.354 226.997 75.4147 227.127 75.536C227.257 75.6573 227.322 75.809 227.322 75.991C227.322 76.1817 227.257 76.342 227.127 76.472C227.005 76.602 226.845 76.667 226.646 76.667ZM231.502 85.065C230.939 85.065 230.406 84.987 229.903 84.831C229.4 84.6663 229.006 84.4627 228.72 84.22L229.136 83.492C229.413 83.7 229.769 83.882 230.202 84.038C230.635 84.1853 231.09 84.259 231.567 84.259C232.217 84.259 232.685 84.1593 232.971 83.96C233.257 83.752 233.4 83.479 233.4 83.141C233.4 82.8897 233.318 82.6947 233.153 82.556C232.997 82.4087 232.789 82.3003 232.529 82.231C232.269 82.153 231.979 82.088 231.658 82.036C231.337 81.984 231.017 81.9233 230.696 81.854C230.384 81.7847 230.098 81.685 229.838 81.555C229.578 81.4163 229.366 81.23 229.201 80.996C229.045 80.762 228.967 80.45 228.967 80.06C228.967 79.6873 229.071 79.3537 229.279 79.059C229.487 78.7643 229.79 78.5347 230.189 78.37C230.596 78.1967 231.09 78.11 231.671 78.11C232.113 78.11 232.555 78.1707 232.997 78.292C233.439 78.4047 233.803 78.5563 234.089 78.747L233.686 79.488C233.383 79.28 233.058 79.1327 232.711 79.046C232.364 78.9507 232.018 78.903 231.671 78.903C231.056 78.903 230.601 79.0113 230.306 79.228C230.02 79.436 229.877 79.7047 229.877 80.034C229.877 80.294 229.955 80.4977 230.111 80.645C230.276 80.7923 230.488 80.9093 230.748 80.996C231.017 81.074 231.307 81.139 231.619 81.191C231.94 81.243 232.256 81.308 232.568 81.386C232.889 81.4553 233.179 81.555 233.439 81.685C233.708 81.8063 233.92 81.984 234.076 82.218C234.241 82.4433 234.323 82.7423 234.323 83.115C234.323 83.5137 234.21 83.8603 233.985 84.155C233.768 84.441 233.448 84.6663 233.023 84.831C232.607 84.987 232.1 85.065 231.502 85.065ZM238.174 85.065C237.533 85.065 237.039 84.8917 236.692 84.545C236.346 84.1983 236.172 83.7087 236.172 83.076V76.667H237.095V83.024C237.095 83.4227 237.195 83.7303 237.394 83.947C237.602 84.1637 237.897 84.272 238.278 84.272C238.686 84.272 239.024 84.155 239.292 83.921L239.617 84.584C239.435 84.7487 239.214 84.87 238.954 84.948C238.703 85.026 238.443 85.065 238.174 85.065ZM234.95 78.942V78.175H239.175V78.942H234.95ZM241.298 85V78.175H242.221V85H241.298ZM241.766 76.667C241.575 76.667 241.415 76.602 241.285 76.472C241.155 76.342 241.09 76.186 241.09 76.004C241.09 75.822 241.155 75.6703 241.285 75.549C241.415 75.419 241.575 75.354 241.766 75.354C241.956 75.354 242.117 75.4147 242.247 75.536C242.377 75.6573 242.442 75.809 242.442 75.991C242.442 76.1817 242.377 76.342 242.247 76.472C242.125 76.602 241.965 76.667 241.766 76.667ZM247.623 85.065C246.947 85.065 246.34 84.9177 245.803 84.623C245.274 84.3197 244.858 83.908 244.555 83.388C244.252 82.8593 244.1 82.257 244.1 81.581C244.1 80.8963 244.252 80.294 244.555 79.774C244.858 79.254 245.274 78.8467 245.803 78.552C246.34 78.2573 246.947 78.11 247.623 78.11C248.204 78.11 248.728 78.2227 249.196 78.448C249.664 78.6733 250.032 79.0113 250.301 79.462L249.612 79.93C249.378 79.5833 249.088 79.3277 248.741 79.163C248.394 78.9983 248.017 78.916 247.61 78.916C247.125 78.916 246.687 79.0287 246.297 79.254C245.907 79.4707 245.599 79.7783 245.374 80.177C245.149 80.5757 245.036 81.0437 245.036 81.581C245.036 82.1183 245.149 82.5863 245.374 82.985C245.599 83.3837 245.907 83.6957 246.297 83.921C246.687 84.1377 247.125 84.246 247.61 84.246C248.017 84.246 248.394 84.1637 248.741 83.999C249.088 83.8343 249.378 83.583 249.612 83.245L250.301 83.713C250.032 84.155 249.664 84.493 249.196 84.727C248.728 84.9523 248.204 85.065 247.623 85.065ZM256.391 85V83.492L256.352 83.245V80.723C256.352 80.1423 256.187 79.696 255.858 79.384C255.537 79.072 255.056 78.916 254.415 78.916C253.973 78.916 253.553 78.9897 253.154 79.137C252.755 79.2843 252.417 79.4793 252.14 79.722L251.724 79.033C252.071 78.7383 252.487 78.513 252.972 78.357C253.457 78.1923 253.969 78.11 254.506 78.11C255.39 78.11 256.07 78.331 256.547 78.773C257.032 79.2063 257.275 79.8693 257.275 80.762V85H256.391ZM254.038 85.065C253.527 85.065 253.08 84.9827 252.699 84.818C252.326 84.6447 252.04 84.4107 251.841 84.116C251.642 83.8127 251.542 83.466 251.542 83.076C251.542 82.7207 251.624 82.4 251.789 82.114C251.962 81.8193 252.24 81.5853 252.621 81.412C253.011 81.23 253.531 81.139 254.181 81.139H256.534V81.828H254.207C253.548 81.828 253.089 81.945 252.829 82.179C252.578 82.413 252.452 82.7033 252.452 83.05C252.452 83.44 252.604 83.752 252.907 83.986C253.21 84.22 253.635 84.337 254.181 84.337C254.701 84.337 255.147 84.22 255.52 83.986C255.901 83.7433 256.179 83.3967 256.352 82.946L256.56 83.583C256.387 84.0337 256.083 84.3933 255.65 84.662C255.225 84.9307 254.688 85.065 254.038 85.065ZM259.782 85V75.354H260.705V85H259.782ZM263.273 85V75.354H264.196V85H263.273ZM266.817 87.587C266.496 87.587 266.188 87.535 265.894 87.431C265.608 87.327 265.361 87.171 265.153 86.963L265.582 86.274C265.755 86.4387 265.941 86.5643 266.141 86.651C266.349 86.7463 266.578 86.794 266.83 86.794C267.133 86.794 267.393 86.7073 267.61 86.534C267.835 86.3693 268.047 86.0747 268.247 85.65L268.689 84.649L268.793 84.506L271.601 78.175H272.511L269.092 85.819C268.901 86.261 268.689 86.612 268.455 86.872C268.229 87.132 267.982 87.314 267.714 87.418C267.445 87.5307 267.146 87.587 266.817 87.587ZM268.637 85.195L265.491 78.175H266.453L269.235 84.441L268.637 85.195ZM273.457 85.065C273.266 85.065 273.102 84.9957 272.963 84.857C272.833 84.7183 272.768 84.5493 272.768 84.35C272.768 84.142 272.833 83.973 272.963 83.843C273.102 83.713 273.266 83.648 273.457 83.648C273.648 83.648 273.808 83.713 273.938 83.843C274.077 83.973 274.146 84.142 274.146 84.35C274.146 84.5493 274.077 84.7183 273.938 84.857C273.808 84.9957 273.648 85.065 273.457 85.065Z"
        fill="white" />
    <defs>
        <filter id="filter0_d_1_417" x="0" y="7" width="316" height="109" filterUnits="userSpaceOnUse"
            color-interpolation-filters="sRGB">
            <feFlood flood-opacity="0" result="BackgroundImageFix" />
            <feColorMatrix in="SourceAlpha" type="matrix" values="0 0 0 0 0 0 0 0 0 0 0 0 0 0 0 0 0 0 127 0"
                result="hardAlpha" />
            <feOffset dy="4" />
            <feGaussianBlur stdDeviation="4" />
            <feColorMatrix type="matrix" values="0 0 0 0 0 0 0 0 0 0 0 0 0 0 0 0 0 0 0.08 0" />
            <feBlend mode="normal" in2="BackgroundImageFix" result="effect1_dropShadow_1_417" />
            <feBlend mode="normal" in="SourceGraphic" in2="effect1_dropShadow_1_417" result="shape" />
        </filter>
    </defs>
</svg>